<svg width="575" height="380" viewBox="0 0 575 380" fill="none" xmlns="http://www.w3.org/2000/svg">
<g filter="url(#filter0_d_209_8307)">
<mask id="path-1-outside-1_209_8307" maskUnits="userSpaceOnUse" x="-485" y="-0.456055" width="1058" height="364" fill="black">
<rect fill="white" x="-485" y="-0.456055" width="1058" height="364"/>
<path fill-rule="evenodd" clip-rule="evenodd" d="M-395.131 304.868C-408.602 304.052 -437.937 301.759 -447.506 299.112C-449.291 297.743 -452.048 296.134 -454.955 294.439L-454.956 294.438L-454.957 294.438C-460.901 290.97 -467.47 287.138 -467.622 284.247C-467.804 280.802 -458.334 277.192 -453.577 275.817C-454.846 268.747 -457.655 265.185 -460.011 262.901C-462.367 260.616 -467.758 257.387 -470.159 256.057C-468.951 253.836 -466.535 247.455 -466.535 239.696C-466.535 236.783 -467.257 233.323 -468.12 229.185C-469.555 222.302 -471.382 213.543 -470.93 202.306C-465.508 195.01 -445.739 180.782 -408.904 168.633C-385.707 155.671 -316.886 130.155 -224.822 130.155C-69.1646 15.397 143.219 -22.599 387.231 52.1126C403.678 57.1484 421.154 63.6917 438.869 70.3246C476.303 84.3405 514.806 98.7569 546.938 100.198C536.797 115.796 537.702 124.623 545.352 140.443V146.697C538.958 146.473 536.1 148.102 537.197 155.263C542.53 190.082 548.148 195.289 557.24 203.716C557.824 204.258 558.422 204.812 559.035 205.388C560.064 216.897 558.004 225.168 552.42 241.237V250.029C549.005 259.41 546.408 263.491 541.365 270.061C549.493 277.388 538.578 282.448 452.428 295.577L434.029 296.508C431.168 303.278 427.387 309.564 422.842 315.21C489.502 318.883 529.36 323.541 529.36 328.609C529.36 340.47 311.097 350.085 41.8558 350.085C-91.5405 350.085 -212.423 347.725 -300.446 343.901C-303.879 344.358 -307.382 344.594 -310.941 344.594C-317.082 344.594 -323.059 343.891 -328.796 342.56C-401.651 338.807 -445.648 333.935 -445.648 328.609C-445.648 324.4 -418.157 320.474 -370.654 317.16C-373.86 313.428 -376.722 309.393 -379.192 305.104L-395.131 304.868ZM296.519 310.293C295.058 308.159 293.699 305.949 292.45 303.671L267.892 304.913L-214.447 307.542L-243.882 307.106C-244.761 308.534 -245.685 309.931 -246.651 311.297C-165.869 308.68 -66.1047 307.134 41.8558 307.134C135.193 307.134 222.404 308.289 296.519 310.293Z"/>
</mask>
<path d="M-447.506 299.112L-455.441 309.458C-454.111 310.478 -452.597 311.232 -450.982 311.679L-447.506 299.112ZM-395.131 304.868L-395.919 317.883C-395.721 317.895 -395.523 317.902 -395.324 317.905L-395.131 304.868ZM-454.955 294.439L-448.385 283.176C-448.518 283.099 -448.652 283.024 -448.787 282.951L-454.955 294.439ZM-454.956 294.438L-461.297 305.832C-461.239 305.864 -461.182 305.895 -461.124 305.926L-454.956 294.438ZM-454.957 294.438L-461.527 305.701C-461.451 305.745 -461.374 305.789 -461.297 305.831L-454.957 294.438ZM-467.622 284.247L-480.643 284.932L-467.622 284.247ZM-453.577 275.817L-449.957 288.343C-443.542 286.489 -439.564 280.088 -440.743 273.514L-453.577 275.817ZM-460.011 262.901L-469.087 272.262H-469.087L-460.011 262.901ZM-470.159 256.057L-481.613 249.826C-485.036 256.119 -482.742 263.995 -476.475 267.464L-470.159 256.057ZM-468.12 229.185L-455.356 226.523H-455.356L-468.12 229.185ZM-470.93 202.306L-481.396 194.53C-482.959 196.634 -483.852 199.161 -483.958 201.781L-470.93 202.306ZM-408.904 168.633L-404.82 181.015C-404.031 180.755 -403.269 180.42 -402.544 180.015L-408.904 168.633ZM-224.822 130.155V143.194C-222.037 143.194 -219.326 142.303 -217.084 140.65L-224.822 130.155ZM387.231 52.1126L383.414 64.5801L387.231 52.1126ZM438.869 70.3246L443.441 58.1137L438.869 70.3246ZM546.938 100.198L557.87 107.305C560.419 103.384 560.673 98.3979 558.535 94.2381C556.397 90.0782 552.195 87.3821 547.522 87.1725L546.938 100.198ZM545.352 140.443H558.391C558.391 138.477 557.947 136.537 557.091 134.767L545.352 140.443ZM545.352 146.697L544.894 159.728C548.43 159.853 551.864 158.535 554.409 156.078C556.954 153.621 558.391 150.235 558.391 146.697H545.352ZM537.197 155.263L550.086 153.289V153.289L537.197 155.263ZM557.24 203.716L548.376 213.279L548.377 213.28L557.24 203.716ZM559.035 205.388L572.022 204.228C571.738 201.044 570.294 198.076 567.965 195.887L559.035 205.388ZM552.42 241.237L540.104 236.957C539.626 238.334 539.382 239.78 539.382 241.237H552.42ZM552.42 250.029L564.672 254.49C565.193 253.061 565.459 251.551 565.459 250.029H552.42ZM541.365 270.061L531.022 262.123C526.881 267.519 527.583 275.192 532.635 279.746L541.365 270.061ZM452.428 295.577L453.087 308.599C453.524 308.577 453.959 308.533 454.392 308.467L452.428 295.577ZM434.029 296.508L433.37 283.486C428.375 283.738 423.965 286.826 422.019 291.432L434.029 296.508ZM422.842 315.21L412.685 307.033C409.619 310.842 408.941 316.047 410.931 320.514C412.92 324.981 417.242 327.96 422.124 328.229L422.842 315.21ZM-300.446 343.901L-299.88 330.874C-300.645 330.841 -301.41 330.875 -302.169 330.976L-300.446 343.901ZM-328.796 342.56L-325.85 329.858C-326.597 329.685 -327.359 329.578 -328.126 329.538L-328.796 342.56ZM-370.654 317.16L-369.746 330.167C-364.827 329.824 -360.523 326.735 -358.622 322.185C-356.722 317.635 -357.551 312.402 -360.764 308.662L-370.654 317.16ZM-379.192 305.104L-367.892 298.598C-370.184 294.616 -374.404 292.134 -378.999 292.066L-379.192 305.104ZM296.519 310.293L296.166 323.327C301.065 323.46 305.625 320.834 307.969 316.531C310.313 312.227 310.046 306.973 307.279 302.929L296.519 310.293ZM292.45 303.671L303.884 297.403C301.481 293.02 296.784 290.396 291.792 290.648L292.45 303.671ZM267.892 304.913L267.963 317.952C268.159 317.951 268.355 317.945 268.551 317.935L267.892 304.913ZM-214.447 307.542L-214.639 320.579C-214.551 320.58 -214.463 320.581 -214.375 320.58L-214.447 307.542ZM-243.882 307.106L-243.689 294.069C-248.284 294.001 -252.575 296.356 -254.984 300.269L-243.882 307.106ZM-246.651 311.297L-257.295 303.766C-260.154 307.807 -260.478 313.117 -258.132 317.476C-255.787 321.834 -251.176 324.489 -246.229 324.329L-246.651 311.297ZM-450.982 311.679C-444.915 313.357 -434.016 314.672 -424.06 315.653C-413.649 316.678 -402.78 317.467 -395.919 317.883L-394.343 291.853C-400.953 291.453 -411.487 290.687 -421.504 289.701C-431.976 288.669 -440.528 287.514 -444.03 286.545L-450.982 311.679ZM-461.525 305.701C-458.313 307.575 -456.416 308.711 -455.441 309.458L-439.571 288.766C-442.166 286.775 -445.784 284.694 -448.385 283.176L-461.525 305.701ZM-461.124 305.926L-461.123 305.927L-448.787 282.951L-448.788 282.951L-461.124 305.926ZM-461.297 305.831L-461.297 305.832L-448.615 283.045L-448.616 283.045L-461.297 305.831ZM-480.643 284.932C-480.368 290.152 -477.497 293.733 -476.153 295.242C-474.531 297.064 -472.665 298.553 -471.143 299.662C-468.09 301.888 -464.327 304.067 -461.527 305.701L-448.387 283.175C-451.531 281.341 -454.024 279.871 -455.78 278.59C-456.663 277.947 -456.839 277.719 -456.677 277.901C-456.576 278.014 -456.179 278.47 -455.757 279.267C-455.335 280.064 -454.708 281.543 -454.601 283.562L-480.643 284.932ZM-457.197 263.291C-460.07 264.121 -464.473 265.642 -468.394 267.65C-470.292 268.622 -472.749 270.043 -474.904 271.986C-476.566 273.484 -481.012 277.926 -480.643 284.932L-454.601 283.562C-454.459 286.279 -455.321 288.349 -455.997 289.511C-456.639 290.614 -457.282 291.21 -457.443 291.354C-457.724 291.608 -457.551 291.395 -456.509 290.862C-454.552 289.859 -451.841 288.888 -449.957 288.343L-457.197 263.291ZM-469.087 272.262C-468.541 272.791 -468.134 273.272 -467.758 273.943C-467.372 274.631 -466.81 275.893 -466.411 278.12L-440.743 273.514C-442.563 263.375 -446.915 257.436 -450.935 253.539L-469.087 272.262ZM-476.475 267.464C-475.506 268.001 -473.82 268.986 -472.16 270.062C-471.336 270.596 -470.595 271.103 -469.992 271.548C-469.336 272.032 -469.079 272.269 -469.087 272.262L-450.935 253.539C-453.098 251.442 -455.969 249.481 -457.976 248.18C-460.201 246.737 -462.412 245.443 -463.844 244.65L-476.475 267.464ZM-479.574 239.696C-479.574 242.252 -479.976 244.651 -480.496 246.606C-480.753 247.573 -481.024 248.378 -481.255 248.978C-481.501 249.618 -481.648 249.89 -481.613 249.826L-458.706 262.288C-456.549 258.324 -453.496 249.817 -453.496 239.696H-479.574ZM-480.884 231.847C-479.923 236.456 -479.574 238.427 -479.574 239.696H-453.496C-453.496 235.14 -454.591 230.19 -455.356 226.523L-480.884 231.847ZM-483.958 201.781C-484.48 214.75 -482.34 224.869 -480.884 231.847L-455.356 226.523C-456.771 219.735 -458.284 212.336 -457.901 202.831L-483.958 201.781ZM-412.988 156.25C-432.162 162.574 -447.169 169.528 -458.286 176.038C-469.035 182.333 -477.123 188.78 -481.396 194.53L-460.464 210.083C-459.314 208.536 -454.807 204.221 -445.108 198.541C-435.776 193.075 -422.482 186.841 -404.82 181.015L-412.988 156.25ZM-224.822 117.117C-318.986 117.116 -390.016 143.142 -415.264 157.25L-402.544 180.015C-381.398 168.2 -314.785 143.194 -224.822 143.194V117.117ZM391.048 39.6451C143.65 -36.1033 -73.1348 2.12473 -232.559 119.66L-217.084 140.65C-65.1943 28.6692 142.788 -9.09461 383.414 64.5801L391.048 39.6451ZM443.441 58.1137C425.812 51.513 407.948 44.8195 391.048 39.6451L383.414 64.5801C399.408 69.4773 416.496 75.8703 434.297 82.5355L443.441 58.1137ZM547.522 87.1725C517.898 85.8437 481.549 72.3821 443.441 58.1137L434.297 82.5355C471.056 96.2988 511.714 111.67 546.354 113.224L547.522 87.1725ZM557.091 134.767C553.453 127.245 552.47 123.376 552.511 120.418C552.548 117.754 553.457 114.092 557.87 107.305L536.007 93.0909C530.278 101.902 526.569 110.453 526.436 120.057C526.307 129.367 529.601 137.822 533.614 146.12L557.091 134.767ZM558.391 146.697V140.443H532.314V146.697H558.391ZM550.086 153.289C549.929 152.267 550.083 152.419 549.931 153.24C549.736 154.296 549.076 156.157 547.324 157.779C545.711 159.272 544.155 159.644 543.816 159.713C543.532 159.771 543.756 159.688 544.894 159.728L545.811 133.667C542.644 133.555 535.247 133.421 529.608 138.643C523.169 144.604 523.626 152.78 524.309 157.237L550.086 153.289ZM566.104 194.154C561.675 190.049 559.63 188.065 557.572 183.761C555.218 178.839 552.704 170.385 550.086 153.289L524.309 157.237C527.023 174.96 529.985 186.519 534.046 195.012C538.403 204.123 543.713 208.957 548.376 213.279L566.104 194.154ZM567.965 195.887C567.313 195.275 566.683 194.691 566.104 194.153L548.377 213.28C548.965 213.824 549.531 214.349 550.106 214.889L567.965 195.887ZM564.737 245.517C570.441 229.102 573.309 218.632 572.022 204.228L546.048 206.549C546.818 215.162 545.567 221.235 540.104 236.957L564.737 245.517ZM565.459 250.029V241.237H539.382V250.029H565.459ZM551.709 278C557.414 270.567 560.725 265.33 564.672 254.49L540.168 245.568C537.284 253.489 535.403 256.414 531.022 262.123L551.709 278ZM454.392 308.467C497.239 301.937 522.503 297.265 536.069 293.111C539.539 292.048 542.698 290.887 545.378 289.537C547.82 288.307 551.173 286.288 553.608 282.892C556.663 278.634 557.476 273.304 555.681 268.31C554.271 264.39 551.622 261.752 550.096 260.376L532.635 279.746C533.141 280.202 531.929 279.325 531.141 277.135C529.968 273.871 530.589 270.242 532.418 267.693C533.627 266.008 534.719 265.708 533.647 266.247C532.812 266.668 531.204 267.327 528.433 268.176C517.036 271.666 493.767 276.088 450.463 282.687L454.392 308.467ZM434.688 309.53L453.087 308.599L451.769 282.555L433.37 283.486L434.688 309.53ZM422.019 291.432C419.635 297.073 416.481 302.318 412.685 307.033L432.998 323.386C438.292 316.81 442.701 309.482 446.039 301.583L422.019 291.432ZM542.398 328.609C542.398 323.697 539.924 320.283 538.193 318.522C536.497 316.798 534.655 315.731 533.421 315.104C530.901 313.824 527.972 312.931 525.283 312.252C519.698 310.842 511.985 309.592 502.695 308.446C483.955 306.134 456.977 304.032 423.559 302.191L422.124 328.229C455.367 330.06 481.648 332.124 499.502 334.327C508.509 335.438 514.926 336.533 518.897 337.536C520.987 338.064 521.693 338.395 521.613 338.355C521.598 338.347 520.678 337.904 519.599 336.806C518.483 335.672 516.321 332.889 516.321 328.609H542.398ZM41.8558 363.124C176.604 363.124 298.681 360.718 387.147 356.821C431.342 354.874 467.343 352.547 492.4 349.937C504.857 348.64 514.999 347.234 522.199 345.684C525.696 344.932 529.172 344.007 532.031 342.767C533.407 342.17 535.413 341.177 537.278 339.556C539.051 338.015 542.398 334.367 542.398 328.609H516.321C516.321 323.593 519.242 320.682 520.172 319.873C521.195 318.984 521.943 318.718 521.654 318.843C521.184 319.047 519.709 319.545 516.711 320.191C510.924 321.437 501.91 322.728 489.698 324C465.417 326.529 430.025 328.829 385.999 330.769C298.024 334.644 176.348 337.046 41.8558 337.046V363.124ZM-301.012 356.927C-212.748 360.762 -91.6682 363.124 41.8558 363.124V337.046C-91.4128 337.046 -212.098 334.688 -299.88 330.874L-301.012 356.927ZM-310.941 357.633C-306.805 357.633 -302.727 357.358 -298.724 356.825L-302.169 330.976C-305.032 331.358 -307.96 331.555 -310.941 331.555V357.633ZM-331.743 355.261C-325.047 356.815 -318.081 357.633 -310.941 357.633V331.555C-316.083 331.555 -321.072 330.967 -325.85 329.858L-331.743 355.261ZM-458.687 328.609C-458.687 333.777 -455.962 337.27 -454.204 338.971C-452.454 340.666 -450.561 341.709 -449.289 342.323C-446.675 343.587 -443.595 344.486 -440.681 345.186C-434.643 346.636 -426.246 347.932 -416.058 349.125C-395.527 351.527 -365.98 353.701 -329.467 355.581L-328.126 329.538C-364.467 327.666 -393.346 325.527 -413.027 323.224C-422.945 322.063 -430.101 320.908 -434.59 319.83C-435.677 319.569 -436.508 319.335 -437.118 319.139C-437.756 318.934 -437.986 318.823 -437.942 318.844C-437.908 318.86 -437.72 318.952 -437.434 319.137C-437.159 319.314 -436.655 319.665 -436.068 320.234C-434.99 321.277 -432.609 324.108 -432.609 328.609H-458.687ZM-371.561 304.152C-395.408 305.816 -414.568 307.654 -427.899 309.654C-434.475 310.641 -440.156 311.741 -444.412 313.038C-446.444 313.658 -448.936 314.55 -451.179 315.923C-452.497 316.729 -458.687 320.632 -458.687 328.609H-432.609C-432.609 332.133 -434.101 334.69 -435.228 336.07C-436.276 337.354 -437.284 337.993 -437.569 338.167C-438.123 338.506 -438.097 338.375 -436.809 337.983C-434.426 337.257 -430.266 336.379 -424.03 335.443C-411.74 333.599 -393.403 331.817 -369.746 330.167L-371.561 304.152ZM-390.492 311.609C-387.613 316.61 -384.277 321.312 -380.543 325.657L-360.764 308.662C-363.442 305.545 -365.832 302.177 -367.892 298.598L-390.492 311.609ZM-395.324 317.905L-379.385 318.141L-378.999 292.066L-394.938 291.83L-395.324 317.905ZM307.279 302.929C306.059 301.147 304.926 299.303 303.884 297.403L281.017 309.938C282.473 312.595 284.057 315.171 285.759 317.658L307.279 302.929ZM268.551 317.935L293.109 316.693L291.792 290.648L267.233 291.891L268.551 317.935ZM-214.375 320.58L267.963 317.952L267.821 291.874L-214.518 294.503L-214.375 320.58ZM-244.075 320.143L-214.639 320.579L-214.254 294.504L-243.689 294.069L-244.075 320.143ZM-236.007 318.827C-234.881 317.236 -233.805 315.608 -232.78 313.943L-254.984 300.269C-255.718 301.46 -256.489 302.626 -257.295 303.766L-236.007 318.827ZM41.8558 294.095C-66.2184 294.095 -166.125 295.643 -247.073 298.265L-246.229 324.329C-165.612 321.717 -65.9911 320.173 41.8558 320.173V294.095ZM296.871 297.259C222.624 295.252 135.294 294.095 41.8558 294.095V320.173C135.092 320.173 222.184 321.327 296.166 323.327L296.871 297.259Z" fill="black" mask="url(#path-1-outside-1_209_8307)"/>
<path d="M-447.506 299.111C-437.937 301.758 -408.602 304.051 -395.131 304.867L-214.447 307.541L267.892 304.912L452.428 295.576C538.578 282.447 549.493 277.387 541.365 270.06C546.408 263.49 549.005 259.409 552.42 250.028V241.236C558.004 225.167 560.064 216.896 559.035 205.387C548.871 195.835 542.873 192.316 537.197 155.262C536.1 148.101 538.958 146.472 545.352 146.696V140.442C537.702 124.622 536.797 115.795 546.938 100.197C499.599 98.0738 438.433 67.7886 387.231 52.1116C143.219 -22.6 -69.1646 15.396 -224.822 130.154C-316.886 130.154 -385.707 155.67 -408.904 168.632C-445.739 180.781 -465.508 195.009 -470.93 202.305C-471.655 220.298 -466.535 231.936 -466.535 239.695C-466.535 247.454 -468.951 253.835 -470.159 256.056C-467.758 257.386 -462.367 260.615 -460.011 262.9C-457.655 265.184 -454.846 268.746 -453.577 275.816C-458.334 277.191 -467.804 280.801 -467.622 284.246C-467.396 288.551 -452.943 294.942 -447.506 299.111Z" fill="#E8A643" stroke="black" stroke-width="4.5307" stroke-linecap="round" stroke-linejoin="round"/>
<path fill-rule="evenodd" clip-rule="evenodd" d="M558.81 205.645C548.683 216.48 518.245 216.805 449.303 213.982C419.582 164.869 345.006 152.908 301.738 187.387C272.606 210.601 253.87 194.181 310.709 153.18C107.205 158.411 -4.45517 164.15 -200.626 177.827C-193.468 216.202 -206.879 226.894 -234.969 199.71C-274.613 158.073 -339.221 158.616 -380.994 197.037C-413.698 202.318 -434.003 206.189 -462.592 216.655C-463.013 215.997 -463.414 215.384 -463.799 214.798C-466.404 210.825 -468.211 208.068 -469.762 200.88C-463.005 193.263 -443.468 180.032 -408.903 168.632C-385.706 155.67 -316.884 130.154 -224.82 130.154C-69.163 15.396 143.221 -22.5999 387.232 52.1116C403.68 57.1475 421.156 63.6907 438.871 70.3236C476.304 84.3395 514.807 98.7559 546.94 100.197C536.799 115.795 537.704 124.622 545.354 140.442V146.696C538.959 146.472 536.102 148.101 537.199 155.262C542.532 190.081 548.15 195.288 557.242 203.715C557.744 204.181 558.257 204.656 558.781 205.147L558.81 205.645Z" fill="#EDBF54"/>
<path d="M-20.5301 144.527C-190.132 140.518 -288.983 138.902 -360.922 152.41C-350.972 142.34 -297.388 133.564 -227.357 131.32C-40.3331 41.293 80.5046 -35.6596 447.31 72.4883C484.212 88.5744 505.551 93.8666 544.041 100.851C492.864 101.195 462.753 96.6458 405.809 77.6986L-175.661 130.887C-106.876 132.681 -72.3095 135.409 -20.5301 144.527Z" fill="#F7E577"/>
<path d="M499.773 121.375C387.289 117.529 324.734 120.574 213.977 134.106C323.795 111.514 385.64 101.551 499.773 121.375Z" fill="#F7E577"/>
<ellipse cx="41.8554" cy="328.608" rx="487.504" ry="21.4755" fill="#3A3B38"/>
<ellipse cx="26.5439" cy="328.609" rx="427.427" ry="19.6633" fill="#151515"/>
<path d="M-187.58 122.236C-199.171 130.063 -220.111 130.496 -224.777 130.21C-128.409 56.9934 125.99 -63.8405 474.673 83.7245C459.404 84.9931 450.026 78.2424 398.24 62.0677C163.436 -11.2698 -28.0995 14.5407 -187.58 122.236Z" fill="#747476"/>
<path fill-rule="evenodd" clip-rule="evenodd" d="M187.434 21.8349L182.043 13.7702L149.603 13L144.529 20.5663L187.434 21.8349ZM360.145 51.783L368.618 45.2588L331.556 35.3818L319.323 41.7248L360.145 51.783ZM3.62013 30.4901C2.57121 29.9396 1.69218 29.4783 1.04132 29.2198C-31.2243 36.1887 -48.8797 41.1066 -79.5146 51.828C-79.7369 57.9521 -75.8135 60.5826 -62.162 58.5335C-38.3555 50.5802 5.47848 37.9901 17.6708 34.7531C18.6208 34.6756 19.5612 34.4864 20.4781 34.1583C21.5756 33.7655 20.4384 34.0184 17.6708 34.7531C12.5411 35.1717 7.12971 32.3319 3.62013 30.4901Z" fill="#3A3A3A"/>
<path d="M452.358 295.806C440.651 296.894 430.159 298.903 417.182 293.586C402.265 287.475 390.172 311.914 364.055 311.914C344.552 311.914 328.36 294.005 311.073 300.564C299.523 304.945 280.128 305.14 268.62 305.14C263.506 221.696 306.542 179.367 361.771 179.367C412.691 179.367 463.911 219.352 452.358 295.806Z" fill="#1E1E1E" stroke="black" stroke-width="3.62456"/>
<path d="M469.964 273.262C469.991 273.718 469.335 273.863 469.171 273.435C468.844 272.578 468.99 271.256 468.905 270.337C468.692 268.017 468.419 265.702 468.083 263.397C467.031 256.184 465.368 249.058 463.057 242.143C456.06 221.204 442.996 202.472 425.246 189.257C415.115 181.714 403.621 176.051 391.48 172.574C380.575 169.451 369.155 168.066 357.818 168.467C348.792 168.785 339.814 170.318 331.212 173.08C324.227 175.322 317.504 178.367 311.2 182.12C274.811 203.79 256.707 245.418 257.257 286.741C257.261 287.032 256.819 287.063 256.783 286.773C256.659 285.76 256.742 284.676 256.738 283.656C256.727 281.231 256.781 278.805 256.903 276.383C257.278 268.944 258.245 261.55 259.831 254.272C264.56 232.581 275.08 211.957 290.827 196.195C299.628 187.386 309.93 180.167 321.302 175.074C331.474 170.519 342.42 167.802 353.522 166.905C363.455 166.103 373.525 166.798 383.288 168.76C391.894 170.489 400.271 173.31 408.191 177.089C445.563 194.919 467.515 232.561 469.964 273.262Z" fill="black"/>
<path fill-rule="evenodd" clip-rule="evenodd" d="M361.362 344.601C404.825 344.601 440.059 309.367 440.059 265.904C440.059 222.44 404.825 187.206 361.362 187.206C317.898 187.206 282.664 222.44 282.664 265.904C282.664 309.367 317.898 344.601 361.362 344.601ZM361.362 322.6C392.674 322.6 418.058 297.216 418.058 265.904C418.058 234.591 392.674 209.208 361.362 209.208C330.049 209.208 304.665 234.591 304.665 265.904C304.665 297.216 330.049 322.6 361.362 322.6Z" fill="#3F3F3F"/>
<path fill-rule="evenodd" clip-rule="evenodd" d="M416.697 268.633C414.831 298.111 390.332 321.442 360.383 321.442C342.949 321.442 327.363 313.537 317.012 301.115C326.432 316.714 343.548 327.143 363.099 327.143C392.813 327.143 416.901 303.055 416.901 273.342C416.901 271.755 416.832 270.185 416.697 268.633Z" fill="#707070"/>
<mask id="mask0_209_8307" style="mask-type:alpha" maskUnits="userSpaceOnUse" x="282" y="187" width="159" height="158">
<path fill-rule="evenodd" clip-rule="evenodd" d="M361.362 344.601C404.825 344.601 440.059 309.367 440.059 265.904C440.059 222.44 404.825 187.206 361.362 187.206C317.898 187.206 282.664 222.44 282.664 265.904C282.664 309.367 317.898 344.601 361.362 344.601ZM361.362 322.6C392.674 322.6 418.058 297.216 418.058 265.904C418.058 234.591 392.674 209.208 361.362 209.208C330.049 209.208 304.665 234.591 304.665 265.904C304.665 297.216 330.049 322.6 361.362 322.6Z" fill="#3F3F3F"/>
</mask>
<g mask="url(#mask0_209_8307)">
<ellipse cx="361.407" cy="213.26" rx="80.88" ry="47.6105" fill="#303030"/>
</g>
<circle cx="361.36" cy="265.904" r="35.6998" fill="#A7A7A7" stroke="black" stroke-width="2.26535"/>
<circle cx="361.361" cy="265.903" r="7.70498" stroke="black" stroke-width="1.35921"/>
<path d="M414.888 265.331C401.081 260.708 382.22 259.83 367.9 261.96" stroke="black" stroke-width="2.26535"/>
<path d="M411.821 283.42C409.628 282.869 405.934 279.714 405.32 278.977C405.769 275.459 408.827 269.736 414.957 265.543" stroke="black" stroke-width="2.26535"/>
<path d="M405.291 278.897C393.189 285.084 388.505 276.649 368.573 273.545C374.691 270.399 390.978 265.946 407.176 273.307" stroke="black" stroke-width="2.26535" stroke-linejoin="round"/>
<path d="M378.448 316.642C378.579 302.082 373.586 283.873 367.134 270.912" stroke="black" stroke-width="2.26535"/>
<path d="M360.298 319.315C360.145 317.059 362.004 312.57 362.515 311.758C366 311.099 372.387 312.238 378.27 316.772" stroke="black" stroke-width="2.26535"/>
<path d="M362.581 311.707C352.958 302.109 359.532 295.048 356.325 275.131C361.208 279.978 370.476 294.092 368.481 311.772" stroke="black" stroke-width="2.26535" stroke-linejoin="round"/>
<path d="M318.39 297.841C332.277 293.465 348.052 283.09 358.385 272.949" stroke="black" stroke-width="2.26535"/>
<path d="M310.24 281.404C312.338 280.561 317.181 280.942 318.111 281.177C319.816 284.287 320.706 290.715 318.211 297.71" stroke="black" stroke-width="2.26535"/>
<path d="M318.181 281.225C324.335 269.107 333.082 273.177 351.032 263.972C347.932 270.114 337.373 283.29 319.942 286.856" stroke="black" stroke-width="2.26535" stroke-linejoin="round"/>
<path d="M317.712 234.911C326.165 246.766 340.907 258.563 353.745 265.257" stroke="black" stroke-width="2.26535"/>
<path d="M330.826 222.079C332.276 223.815 333.41 228.538 333.474 229.496C331.043 232.077 325.205 234.91 317.781 234.699" stroke="black" stroke-width="2.26535"/>
<path d="M333.448 229.576C346.875 231.685 345.707 241.261 360.008 255.489C353.209 254.438 337.416 248.467 328.637 232.991" stroke="black" stroke-width="2.26535" stroke-linejoin="round"/>
<path d="M377.351 214.819C368.688 226.522 362.024 244.188 359.625 258.466" stroke="black" stroke-width="2.26535"/>
<path d="M393.608 223.326C392.405 225.241 388.263 227.78 387.372 228.136C384.166 226.622 379.667 221.945 377.574 214.819" stroke="black" stroke-width="2.26535"/>
<path d="M387.288 228.138C389.431 241.559 379.963 243.407 370.851 261.405C369.749 254.614 370.547 237.748 382.553 224.617" stroke="black" stroke-width="2.26535" stroke-linejoin="round"/>
<path fill-rule="evenodd" clip-rule="evenodd" d="M414.251 264.421C413.8 248.05 405.913 233.537 393.847 224.138C393.095 225.087 391.873 226.071 390.758 226.861C389.716 227.599 388.671 228.233 388.026 228.565C388.474 231.756 388.266 234.338 387.542 236.666C386.78 239.113 385.462 241.236 383.826 243.453C383.079 244.466 382.263 245.503 381.396 246.605C378.595 250.164 375.256 254.407 371.922 260.782C385.376 259.385 401.722 260.42 414.251 264.421Z" fill="#5A5A5A"/>
<path fill-rule="evenodd" clip-rule="evenodd" d="M376.294 215.145C360.585 210.515 344.345 213.531 331.677 222.102C332.348 223.11 332.906 224.576 333.313 225.882C333.693 227.1 333.973 228.29 334.09 229.006C337.263 229.566 339.654 230.562 341.644 231.97C343.737 233.45 345.348 235.36 346.951 237.601C347.684 238.625 348.417 239.721 349.197 240.886C351.717 244.65 354.72 249.137 359.754 254.278C362.582 241.051 368.618 225.825 376.294 215.145Z" fill="#5A5A5A"/>
<path fill-rule="evenodd" clip-rule="evenodd" d="M317.702 236.016C308.444 249.526 306.294 265.903 310.532 280.599C311.698 280.273 313.265 280.195 314.632 280.212C315.908 280.227 317.126 280.328 317.843 280.439C319.357 277.593 321.042 275.627 322.997 274.169C325.051 272.637 327.365 271.695 329.992 270.863C331.192 270.482 332.461 270.123 333.811 269.742C338.169 268.508 343.364 267.038 349.809 263.84C338.103 257.063 325.487 246.617 317.702 236.016Z" fill="#5A5A5A"/>
<path fill-rule="evenodd" clip-rule="evenodd" d="M319.444 298.192C329.432 311.172 344.343 318.277 359.63 318.788C359.68 317.579 360.09 316.065 360.528 314.769C360.937 313.561 361.41 312.433 361.736 311.785C359.498 309.467 358.149 307.256 357.366 304.947C356.544 302.52 356.363 300.028 356.383 297.273C356.392 296.013 356.443 294.695 356.497 293.294C356.671 288.768 356.878 283.373 355.828 276.255C345.765 285.294 331.932 294.064 319.444 298.192Z" fill="#5A5A5A"/>
<path fill-rule="evenodd" clip-rule="evenodd" d="M379.117 315.747C394.547 310.26 405.913 298.274 411.123 283.894C409.988 283.472 408.674 282.614 407.578 281.797C406.555 281.035 405.629 280.237 405.113 279.726C402.217 281.138 399.697 281.738 397.259 281.769C394.697 281.801 392.271 281.203 389.657 280.333C388.462 279.935 387.224 279.479 385.908 278.995C381.657 277.431 376.59 275.566 369.496 274.366C374.983 286.729 379.05 302.595 379.117 315.747Z" fill="#5A5A5A"/>
<path fill-rule="evenodd" clip-rule="evenodd" d="M376.273 215.114C360.564 210.484 344.324 213.5 331.656 222.072C331.839 222.346 332.013 222.655 332.178 222.984C344.371 220.847 362.498 226.102 366.944 231.939C369.613 225.799 372.773 219.984 376.273 215.114Z" fill="#666666"/>
<path fill-rule="evenodd" clip-rule="evenodd" d="M317.604 235.944C308.346 249.453 306.196 265.831 310.434 280.527C310.751 280.438 311.098 280.368 311.463 280.313C313.198 268.056 323.797 252.44 330.723 250.016C325.708 245.58 321.154 240.778 317.604 235.944Z" fill="#666666"/>
<path fill-rule="evenodd" clip-rule="evenodd" d="M319.286 298.178C329.273 311.157 344.185 318.263 359.471 318.774C359.485 318.445 359.525 318.093 359.586 317.729C348.465 312.292 336.889 297.385 336.723 290.05C330.955 293.448 324.981 296.295 319.286 298.178Z" fill="#666666"/>
<path fill-rule="evenodd" clip-rule="evenodd" d="M378.991 315.811C394.422 310.323 405.787 298.337 410.997 283.957C410.688 283.842 410.366 283.695 410.039 283.525C401.431 292.421 383.677 298.824 376.649 296.715C378.098 303.251 378.961 309.813 378.991 315.811Z" fill="#666666"/>
<path fill-rule="evenodd" clip-rule="evenodd" d="M414.213 264.474C413.762 248.103 405.875 233.59 393.809 224.191C393.604 224.449 393.364 224.71 393.102 224.969C398.903 235.905 399.506 254.769 395.328 260.801C401.993 261.442 408.499 262.65 414.213 264.474Z" fill="#666666"/>
<path fill-rule="evenodd" clip-rule="evenodd" d="M370.112 260.987C369.119 253.793 370.163 237.358 381.854 224.394C380.068 222.246 378.405 219.441 377.267 216.07C369.178 227.39 362.916 243.913 360.457 257.58C360.754 257.548 361.056 257.531 361.362 257.531C364.253 257.531 366.803 258.997 368.307 261.227C368.902 261.142 369.504 261.062 370.112 260.987ZM387.381 227.396C384.577 225.937 380.719 221.941 378.611 215.869C383.737 217.636 388.507 220.169 392.783 223.33C392.174 224.093 391.104 224.979 389.986 225.771C388.917 226.528 387.905 227.129 387.381 227.396Z" fill="#343434"/>
<path fill-rule="evenodd" clip-rule="evenodd" d="M370.114 260.987C369.121 253.793 370.165 237.358 381.855 224.394C380.07 222.246 378.406 219.441 377.269 216.07C372.752 222.392 363.412 243.19 370.114 260.987ZM387.383 227.396C384.579 225.937 380.721 221.941 378.612 215.869C383.739 217.636 388.509 220.169 392.785 223.33C392.175 224.093 391.106 224.979 389.988 225.771C388.919 226.528 387.907 227.129 387.383 227.396Z" fill="#232323"/>
<path fill-rule="evenodd" clip-rule="evenodd" d="M359.39 256.062C352.241 254.784 336.932 248.712 328.216 233.588C325.621 234.622 322.44 235.338 318.882 235.377C327.148 246.568 340.928 257.63 353.165 264.192C353.227 263.9 353.304 263.607 353.399 263.317C354.292 260.566 356.474 258.595 359.06 257.853C359.163 257.261 359.273 256.664 359.39 256.062ZM332.778 229.258C330.524 231.475 325.532 233.909 319.106 234.038C322.37 229.708 326.253 225.955 330.581 222.864C331.118 223.68 331.631 224.971 332.038 226.279C332.428 227.529 332.686 228.677 332.778 229.258Z" fill="#343434"/>
<path fill-rule="evenodd" clip-rule="evenodd" d="M359.389 256.063C352.239 254.784 336.931 248.713 328.215 233.588C325.62 234.623 322.438 235.338 318.881 235.378C323.497 241.627 340.391 256.937 359.389 256.063ZM332.777 229.259C330.523 231.475 325.531 233.909 319.105 234.038C322.369 229.709 326.252 225.955 330.58 222.865C331.117 223.681 331.63 224.972 332.037 226.279C332.427 227.53 332.685 228.678 332.777 229.259Z" fill="#232323"/>
<path fill-rule="evenodd" clip-rule="evenodd" d="M351.392 264.738C347.967 271.143 337.462 283.825 320.384 287.442C320.566 290.229 320.264 293.476 319.202 296.872C332.4 292.468 347.178 282.781 357.2 273.171C356.941 273.022 356.687 272.858 356.44 272.678C354.101 270.978 352.9 268.294 352.993 265.606C352.462 265.325 351.929 265.036 351.392 264.738ZM317.677 281.765C319.088 284.593 319.86 290.093 317.997 296.245C314.888 291.802 312.518 286.95 310.917 281.878C311.858 281.619 313.245 281.531 314.614 281.548C315.924 281.564 317.096 281.672 317.677 281.765Z" fill="#343434"/>
<path fill-rule="evenodd" clip-rule="evenodd" d="M351.393 264.738C347.967 271.143 337.462 283.825 320.385 287.442C320.566 290.229 320.264 293.476 319.202 296.872C326.572 294.413 346.354 283.076 351.393 264.738ZM317.677 281.765C319.088 284.593 319.86 290.093 317.997 296.245C314.889 291.802 312.518 286.95 310.917 281.878C311.859 281.619 313.245 281.531 314.614 281.548C315.924 281.564 317.096 281.672 317.677 281.765Z" fill="#232323"/>
<path fill-rule="evenodd" clip-rule="evenodd" d="M357.173 275.026C362.205 280.263 371.021 294.173 369.183 311.532C371.89 312.221 374.884 313.512 377.786 315.571C377.676 301.658 373.03 284.61 366.987 272.108C366.766 272.309 366.531 272.499 366.284 272.679C363.944 274.379 361.02 274.691 358.492 273.772C358.061 274.19 357.621 274.608 357.173 275.026ZM362.947 312.353C366.073 311.885 371.542 312.85 376.817 316.523C371.632 318.107 366.284 318.861 360.966 318.817C361.011 317.842 361.355 316.496 361.794 315.199C362.214 313.958 362.68 312.877 362.947 312.353Z" fill="#343434"/>
<path fill-rule="evenodd" clip-rule="evenodd" d="M357.173 275.026C362.205 280.263 371.021 294.173 369.183 311.532C371.89 312.22 374.885 313.512 377.786 315.57C377.725 307.801 373.056 285.485 357.173 275.026ZM362.947 312.353C366.073 311.885 371.543 312.85 376.818 316.523C371.632 318.106 366.284 318.861 360.966 318.817C361.011 317.842 361.356 316.496 361.795 315.198C362.215 313.958 362.68 312.877 362.947 312.353Z" fill="#232323"/>
<path fill-rule="evenodd" clip-rule="evenodd" d="M368.742 272.707C375.277 269.539 391.23 265.453 407.172 272.566C408.663 270.204 410.817 267.755 413.671 265.632C400.406 261.437 382.756 260.587 368.999 262.471C369.121 262.744 369.23 263.026 369.324 263.317C370.218 266.067 369.612 268.945 367.956 271.064C368.22 271.603 368.482 272.151 368.742 272.707ZM406.026 278.75C406.546 275.632 409.154 270.729 414.278 266.847C414.181 272.269 413.247 277.587 411.561 282.632C410.647 282.288 409.474 281.544 408.376 280.726C407.325 279.943 406.442 279.166 406.026 278.75Z" fill="#343434"/>
<path fill-rule="evenodd" clip-rule="evenodd" d="M368.744 272.707C375.28 269.54 391.233 265.454 407.175 272.566C408.666 270.204 410.819 267.755 413.674 265.632C406.266 263.289 383.599 260.834 368.744 272.707ZM406.028 278.75C406.549 275.633 409.157 270.729 414.28 266.847C414.184 272.269 413.249 277.588 411.564 282.632C410.65 282.288 409.477 281.544 408.378 280.726C407.328 279.943 406.444 279.167 406.028 278.75Z" fill="#232323"/>
<ellipse cx="361.364" cy="265.904" rx="53.5786" ry="53.5786" stroke="black" stroke-width="2.26535"/>
<circle cx="361.363" cy="265.904" r="56.429" stroke="black" stroke-width="2.26535"/>
<circle cx="361.363" cy="265.903" r="55.0038" stroke="#A6A6A6" stroke-width="1.54044"/>
<mask id="path-57-outside-2_209_8307" maskUnits="userSpaceOnUse" x="356.574" y="261.563" width="10" height="10" fill="black">
<rect fill="white" x="356.574" y="261.563" width="10" height="10"/>
<path fill-rule="evenodd" clip-rule="evenodd" d="M365.056 263.759C363.772 263.199 362.518 263.021 361.423 263.03H361.423C360.327 263.021 359.073 263.199 357.79 263.759C357.637 263.482 357.574 263.313 357.574 263.313C358.977 262.758 360.291 262.568 361.423 262.563C362.554 262.568 363.869 262.758 365.272 263.313C365.272 263.313 365.228 263.45 365.056 263.759ZM362.5 264.172L361.423 270.228L360.338 264.171C359.318 264.172 358.995 264.284 358.948 264.744C358.948 264.744 358.259 264.487 357.912 263.965C359.267 263.337 360.629 263.309 360.629 263.309L361.422 264.276L362.216 263.309C362.216 263.309 363.578 263.337 364.933 263.965C364.586 264.487 363.897 264.744 363.897 264.744C363.85 264.284 363.526 264.172 362.5 264.172Z"/>
</mask>
<path fill-rule="evenodd" clip-rule="evenodd" d="M365.056 263.759C363.772 263.199 362.518 263.021 361.423 263.03H361.423C360.327 263.021 359.073 263.199 357.79 263.759C357.637 263.482 357.574 263.313 357.574 263.313C358.977 262.758 360.291 262.568 361.423 262.563C362.554 262.568 363.869 262.758 365.272 263.313C365.272 263.313 365.228 263.45 365.056 263.759ZM362.5 264.172L361.423 270.228L360.338 264.171C359.318 264.172 358.995 264.284 358.948 264.744C358.948 264.744 358.259 264.487 357.912 263.965C359.267 263.337 360.629 263.309 360.629 263.309L361.422 264.276L362.216 263.309C362.216 263.309 363.578 263.337 364.933 263.965C364.586 264.487 363.897 264.744 363.897 264.744C363.85 264.284 363.526 264.172 362.5 264.172Z" fill="#EBEBEB"/>
<path d="M361.423 263.03V263.936L361.43 263.936L361.423 263.03ZM365.056 263.759L364.694 264.589C365.122 264.776 365.621 264.607 365.848 264.199L365.056 263.759ZM361.423 263.03L361.416 263.936H361.423V263.03ZM357.79 263.759L356.996 264.196C357.222 264.606 357.723 264.776 358.152 264.589L357.79 263.759ZM357.574 263.313L357.241 262.471C356.782 262.652 356.553 263.167 356.725 263.63L357.574 263.313ZM361.423 262.563L361.427 261.657L361.419 261.657L361.423 262.563ZM365.272 263.313L366.134 263.592C366.281 263.137 366.049 262.647 365.605 262.471L365.272 263.313ZM361.423 270.228L360.531 270.388C360.609 270.82 360.985 271.134 361.424 271.134C361.863 271.134 362.238 270.819 362.315 270.387L361.423 270.228ZM362.5 264.172V263.266C362.061 263.266 361.685 263.581 361.608 264.013L362.5 264.172ZM360.338 264.171L361.23 264.011C361.152 263.579 360.776 263.264 360.337 263.265L360.338 264.171ZM358.948 264.744L358.631 265.593C358.894 265.691 359.188 265.661 359.426 265.513C359.664 265.365 359.821 265.115 359.849 264.836L358.948 264.744ZM357.912 263.965L357.531 263.143C357.291 263.254 357.111 263.465 357.04 263.719C356.968 263.974 357.011 264.247 357.157 264.467L357.912 263.965ZM360.629 263.309L361.329 262.734C361.153 262.519 360.888 262.397 360.61 262.403L360.629 263.309ZM361.422 264.276L360.722 264.851C360.894 265.06 361.151 265.182 361.422 265.182C361.694 265.182 361.951 265.06 362.123 264.851L361.422 264.276ZM362.216 263.309L362.235 262.403C361.957 262.397 361.692 262.519 361.516 262.734L362.216 263.309ZM364.933 263.965L365.687 264.468C365.834 264.248 365.877 263.974 365.805 263.72C365.733 263.465 365.554 263.255 365.314 263.143L364.933 263.965ZM363.897 264.744L362.995 264.835C363.024 265.115 363.18 265.365 363.419 265.513C363.657 265.661 363.951 265.691 364.214 265.593L363.897 264.744ZM361.43 263.936C362.422 263.928 363.546 264.089 364.694 264.589L365.418 262.928C363.998 262.309 362.615 262.114 361.416 262.124L361.43 263.936ZM361.423 263.936H361.423V262.124H361.423V263.936ZM358.152 264.589C359.299 264.089 360.424 263.928 361.416 263.936L361.43 262.124C360.231 262.114 358.847 262.309 357.428 262.928L358.152 264.589ZM357.574 263.313C356.725 263.63 356.725 263.63 356.725 263.63C356.725 263.63 356.725 263.63 356.725 263.63C356.725 263.63 356.725 263.63 356.725 263.63C356.725 263.631 356.726 263.631 356.726 263.631C356.726 263.632 356.726 263.633 356.727 263.634C356.727 263.635 356.728 263.637 356.728 263.638C356.73 263.642 356.731 263.646 356.733 263.651C356.737 263.661 356.742 263.674 356.748 263.688C356.761 263.718 356.777 263.758 356.799 263.806C356.843 263.903 356.908 264.036 356.996 264.196L358.583 263.321C358.519 263.204 358.475 263.114 358.45 263.058C358.437 263.03 358.429 263.01 358.424 263C358.422 262.994 358.421 262.991 358.421 262.991C358.421 262.991 358.421 262.991 358.422 262.992C358.422 262.993 358.422 262.993 358.422 262.994C358.422 262.995 358.423 262.995 358.423 262.996C358.423 262.996 358.423 262.996 358.423 262.996C358.423 262.997 358.423 262.997 358.423 262.997C358.423 262.997 358.423 262.997 358.423 262.997C358.423 262.997 358.423 262.997 357.574 263.313ZM361.419 261.657C360.188 261.663 358.76 261.87 357.241 262.471L357.908 264.156C359.194 263.647 360.395 263.474 361.427 263.47L361.419 261.657ZM365.605 262.471C364.085 261.87 362.658 261.663 361.427 261.657L361.419 263.47C362.451 263.474 363.652 263.647 364.938 264.156L365.605 262.471ZM365.848 264.199C365.945 264.024 366.011 263.889 366.056 263.79C366.078 263.74 366.095 263.699 366.107 263.666C366.114 263.65 366.119 263.636 366.123 263.623C366.125 263.617 366.127 263.612 366.129 263.606C366.13 263.604 366.131 263.601 366.132 263.599C366.132 263.598 366.133 263.596 366.133 263.595C366.133 263.595 366.133 263.594 366.133 263.594C366.134 263.593 366.134 263.593 366.134 263.593C366.134 263.593 366.134 263.593 366.134 263.592C366.134 263.592 366.134 263.592 365.272 263.313C364.409 263.035 364.41 263.035 364.41 263.034C364.41 263.034 364.41 263.034 364.41 263.034C364.41 263.034 364.41 263.033 364.41 263.033C364.41 263.033 364.41 263.032 364.41 263.032C364.411 263.031 364.411 263.03 364.411 263.029C364.412 263.027 364.413 263.025 364.413 263.024C364.414 263.021 364.415 263.018 364.416 263.016C364.417 263.013 364.418 263.011 364.417 263.013C364.416 263.015 364.411 263.028 364.401 263.051C364.38 263.097 364.338 263.185 364.264 263.319L365.848 264.199ZM362.315 270.387L363.392 264.33L361.608 264.013L360.531 270.069L362.315 270.387ZM359.446 264.331L360.531 270.388L362.315 270.068L361.23 264.011L359.446 264.331ZM359.849 264.836C359.851 264.818 359.847 264.89 359.783 264.982C359.713 265.08 359.632 265.119 359.614 265.126C359.61 265.128 359.654 265.111 359.789 265.097C359.919 265.084 360.096 265.077 360.338 265.077L360.337 263.265C359.846 263.265 359.34 263.284 358.941 263.444C358.71 263.537 358.475 263.69 358.3 263.939C358.13 264.181 358.068 264.439 358.046 264.651L359.849 264.836ZM357.157 264.467C357.437 264.888 357.825 265.166 358.094 265.327C358.235 265.412 358.362 265.475 358.456 265.518C358.503 265.54 358.542 265.557 358.572 265.569C358.587 265.575 358.6 265.58 358.61 265.584C358.615 265.586 358.619 265.588 358.622 265.589C358.624 265.59 358.626 265.591 358.627 265.591C358.628 265.591 358.629 265.592 358.629 265.592C358.63 265.592 358.63 265.592 358.63 265.592C358.63 265.592 358.631 265.592 358.631 265.592C358.631 265.593 358.631 265.593 358.948 264.744C359.264 263.894 359.264 263.895 359.265 263.895C359.265 263.895 359.265 263.895 359.265 263.895C359.265 263.895 359.265 263.895 359.266 263.895C359.266 263.895 359.267 263.895 359.267 263.896C359.268 263.896 359.268 263.896 359.269 263.896C359.27 263.897 359.27 263.897 359.27 263.897C359.27 263.897 359.267 263.896 359.263 263.894C359.253 263.89 359.236 263.883 359.213 263.872C359.167 263.851 359.1 263.817 359.026 263.773C358.864 263.676 358.734 263.565 358.666 263.463L357.157 264.467ZM360.629 263.309C360.61 262.403 360.61 262.403 360.609 262.403C360.609 262.403 360.609 262.403 360.609 262.403C360.609 262.403 360.608 262.403 360.608 262.403C360.607 262.403 360.606 262.403 360.606 262.403C360.604 262.403 360.602 262.403 360.599 262.403C360.595 262.403 360.589 262.404 360.581 262.404C360.567 262.404 360.547 262.405 360.522 262.406C360.473 262.409 360.404 262.413 360.319 262.42C360.149 262.435 359.911 262.461 359.628 262.508C359.067 262.602 358.304 262.785 357.531 263.143L358.293 264.787C358.875 264.518 359.47 264.372 359.928 264.295C360.155 264.257 360.343 264.237 360.47 264.226C360.534 264.221 360.582 264.218 360.613 264.216C360.628 264.216 360.639 264.215 360.645 264.215C360.648 264.215 360.649 264.215 360.65 264.215C360.65 264.215 360.65 264.215 360.65 264.215C360.649 264.215 360.649 264.215 360.649 264.215C360.649 264.215 360.648 264.215 360.648 264.215C360.648 264.215 360.648 264.215 360.648 264.215C360.648 264.215 360.647 264.215 360.629 263.309ZM362.123 263.701L361.329 262.734L359.928 263.884L360.722 264.851L362.123 263.701ZM361.516 262.734L360.722 263.701L362.123 264.851L362.916 263.884L361.516 262.734ZM365.314 263.143C364.541 262.785 363.778 262.602 363.216 262.508C362.933 262.461 362.696 262.435 362.526 262.42C362.44 262.413 362.372 262.409 362.323 262.407C362.298 262.405 362.278 262.405 362.263 262.404C362.256 262.404 362.25 262.404 362.245 262.403C362.243 262.403 362.241 262.403 362.239 262.403C362.238 262.403 362.237 262.403 362.237 262.403C362.236 262.403 362.236 262.403 362.236 262.403C362.235 262.403 362.235 262.403 362.235 262.403C362.235 262.403 362.235 262.403 362.216 263.309C362.197 264.215 362.197 264.215 362.197 264.215C362.197 264.215 362.196 264.215 362.196 264.215C362.196 264.215 362.196 264.215 362.196 264.215C362.195 264.215 362.195 264.215 362.195 264.215C362.195 264.215 362.194 264.215 362.195 264.215C362.195 264.215 362.197 264.215 362.2 264.215C362.206 264.215 362.216 264.216 362.232 264.217C362.262 264.218 362.311 264.221 362.374 264.226C362.502 264.237 362.689 264.257 362.916 264.295C363.374 264.372 363.97 264.518 364.552 264.788L365.314 263.143ZM363.897 264.744C364.214 265.593 364.214 265.593 364.214 265.593C364.214 265.592 364.214 265.592 364.214 265.592C364.215 265.592 364.215 265.592 364.215 265.592C364.216 265.592 364.217 265.592 364.217 265.591C364.219 265.591 364.22 265.59 364.222 265.589C364.226 265.588 364.23 265.586 364.235 265.584C364.245 265.581 364.258 265.576 364.273 265.569C364.302 265.557 364.342 265.54 364.389 265.518C364.482 265.475 364.609 265.412 364.751 265.327C365.02 265.166 365.407 264.888 365.687 264.468L364.179 263.463C364.111 263.565 363.981 263.676 363.818 263.773C363.744 263.818 363.678 263.851 363.631 263.872C363.608 263.883 363.591 263.89 363.582 263.894C363.577 263.896 363.575 263.897 363.574 263.897C363.574 263.897 363.575 263.897 363.576 263.896C363.576 263.896 363.577 263.896 363.578 263.896C363.578 263.896 363.578 263.895 363.579 263.895C363.579 263.895 363.579 263.895 363.58 263.895C363.58 263.895 363.58 263.895 363.58 263.895C363.58 263.895 363.58 263.895 363.897 264.744ZM362.5 265.078C362.744 265.078 362.922 265.085 363.054 265.098C363.19 265.112 363.234 265.129 363.231 265.127C363.214 265.121 363.133 265.082 363.063 264.982C362.998 264.89 362.994 264.818 362.995 264.835L364.798 264.652C364.777 264.439 364.715 264.181 364.544 263.938C364.368 263.689 364.133 263.536 363.901 263.443C363.501 263.285 362.994 263.266 362.5 263.266V265.078Z" fill="black" mask="url(#path-57-outside-2_209_8307)"/>
<path d="M387.636 192.676C386.264 192.98 384.5 193.874 383.789 194.283" stroke="black" stroke-width="2.26535" stroke-linecap="round"/>
<path d="M398.767 197.688C397.364 197.773 395.482 198.38 394.716 198.673" stroke="black" stroke-width="2.26535" stroke-linecap="round"/>
<path d="M408.976 204.379C407.577 204.244 405.623 204.549 404.821 204.718" stroke="black" stroke-width="2.26535" stroke-linecap="round"/>
<path d="M418.017 212.586C416.657 212.233 414.679 212.229 413.86 212.271" stroke="black" stroke-width="2.26535" stroke-linecap="round"/>
<path d="M425.659 222.105C424.371 221.544 422.418 221.23 421.603 221.144" stroke="black" stroke-width="2.26535" stroke-linecap="round"/>
<path d="M431.717 232.703C430.532 231.947 428.652 231.332 427.861 231.119" stroke="black" stroke-width="2.26535" stroke-linecap="round"/>
<path d="M436.047 244.118C434.995 243.186 433.235 242.284 432.487 241.95" stroke="black" stroke-width="2.26535" stroke-linecap="round"/>
<path d="M438.534 256.07C437.64 254.984 436.043 253.819 435.356 253.371" stroke="black" stroke-width="2.26535" stroke-linecap="round"/>
<path d="M439.121 268.264C438.408 267.052 437.013 265.651 436.404 265.102" stroke="black" stroke-width="2.26535" stroke-linecap="round"/>
<path d="M437.794 280.4C437.28 279.092 436.121 277.489 435.606 276.851" stroke="black" stroke-width="2.26535" stroke-linecap="round"/>
<path d="M434.585 292.178C434.282 290.806 433.388 289.042 432.979 288.331" stroke="black" stroke-width="2.26535" stroke-linecap="round"/>
<path d="M429.576 303.31C429.491 301.907 428.884 300.025 428.591 299.259" stroke="black" stroke-width="2.26535" stroke-linecap="round"/>
<path d="M422.884 313.52C423.019 312.121 422.714 310.167 422.544 309.365" stroke="black" stroke-width="2.26535" stroke-linecap="round"/>
<path d="M414.678 322.558C415.031 321.198 415.035 319.22 414.993 318.401" stroke="black" stroke-width="2.26535" stroke-linecap="round"/>
<path d="M405.157 330.201C405.718 328.913 406.031 326.96 406.118 326.145" stroke="black" stroke-width="2.26535" stroke-linecap="round"/>
<path d="M394.561 336.262C395.317 335.077 395.932 333.197 396.146 332.405" stroke="black" stroke-width="2.26535" stroke-linecap="round"/>
<path d="M383.145 340.589C384.077 339.537 384.978 337.777 385.313 337.028" stroke="black" stroke-width="2.26535" stroke-linecap="round"/>
<path d="M371.193 343.078C372.278 342.184 373.444 340.587 373.891 339.9" stroke="black" stroke-width="2.26535" stroke-linecap="round"/>
<path d="M358.998 343.666C360.209 342.953 361.611 341.558 362.16 340.949" stroke="black" stroke-width="2.26535" stroke-linecap="round"/>
<path d="M346.865 342.339C348.173 341.825 349.776 340.666 350.413 340.151" stroke="black" stroke-width="2.26535" stroke-linecap="round"/>
<path d="M335.086 339.13C336.459 338.827 338.223 337.933 338.933 337.524" stroke="black" stroke-width="2.26535" stroke-linecap="round"/>
<path d="M323.952 334.118C325.355 334.033 327.237 333.426 328.003 333.133" stroke="black" stroke-width="2.26535" stroke-linecap="round"/>
<path d="M313.743 327.426C315.141 327.562 317.096 327.257 317.898 327.087" stroke="black" stroke-width="2.26535" stroke-linecap="round"/>
<path d="M304.705 319.22C306.066 319.573 308.044 319.577 308.862 319.535" stroke="black" stroke-width="2.26535" stroke-linecap="round"/>
<path d="M297.063 309.701C298.352 310.262 300.305 310.575 301.12 310.662" stroke="black" stroke-width="2.26535" stroke-linecap="round"/>
<path d="M291.002 299.103C292.187 299.859 294.066 300.474 294.858 300.688" stroke="black" stroke-width="2.26535" stroke-linecap="round"/>
<path d="M286.675 287.688C287.727 288.62 289.488 289.521 290.236 289.856" stroke="black" stroke-width="2.26535" stroke-linecap="round"/>
<path d="M284.185 275.736C285.078 276.821 286.676 277.987 287.363 278.434" stroke="black" stroke-width="2.26535" stroke-linecap="round"/>
<path d="M283.598 263.543C284.31 264.754 285.706 266.156 286.314 266.705" stroke="black" stroke-width="2.26535" stroke-linecap="round"/>
<path d="M284.924 251.407C285.439 252.715 286.598 254.318 287.113 254.955" stroke="black" stroke-width="2.26535" stroke-linecap="round"/>
<path d="M288.133 239.628C288.437 241.001 289.331 242.765 289.74 243.475" stroke="black" stroke-width="2.26535" stroke-linecap="round"/>
<path d="M293.147 228.497C293.231 229.9 293.839 231.782 294.132 232.548" stroke="black" stroke-width="2.26535" stroke-linecap="round"/>
<path d="M299.835 218.286C299.7 219.684 300.005 221.638 300.174 222.441" stroke="black" stroke-width="2.26535" stroke-linecap="round"/>
<path d="M308.045 209.247C307.692 210.608 307.688 212.586 307.73 213.404" stroke="black" stroke-width="2.26535" stroke-linecap="round"/>
<path d="M317.562 201.604C317.001 202.893 316.687 204.846 316.601 205.661" stroke="black" stroke-width="2.26535" stroke-linecap="round"/>
<path d="M328.161 195.545C327.405 196.73 326.79 198.609 326.577 199.401" stroke="black" stroke-width="2.26535" stroke-linecap="round"/>
<path d="M339.574 191.217C338.642 192.269 337.74 194.03 337.406 194.778" stroke="black" stroke-width="2.26535" stroke-linecap="round"/>
<path d="M351.526 188.729C350.441 189.622 349.275 191.22 348.827 191.907" stroke="black" stroke-width="2.26535" stroke-linecap="round"/>
<path d="M363.721 188.141C362.509 188.853 361.108 190.249 360.559 190.857" stroke="black" stroke-width="2.26535" stroke-linecap="round"/>
<path d="M375.858 189.467C374.55 189.982 372.947 191.141 372.309 191.656" stroke="black" stroke-width="2.26535" stroke-linecap="round"/>
<circle cx="361.363" cy="265.904" r="78.6977" transform="rotate(9.00002 361.363 265.904)" stroke="black" stroke-width="4.5307"/>
<path d="M289.828 143.303C296.799 143.161 299.612 141.544 302.375 137.261C302.753 136.675 302.319 135.918 301.621 135.918H292.306C291.507 135.918 290.828 136.483 290.278 137.063C286.923 140.599 273.378 140.177 256.589 140.724C255.803 140.749 255.065 141.117 254.57 141.728L253.69 142.814C253.202 143.416 253.645 144.312 254.419 144.29L289.828 143.303Z" fill="#3A3A3A" stroke="black" stroke-width="2.26535" stroke-linejoin="round"/>
<path d="M54.2299 152.409C61.2011 152.268 64.0146 150.65 66.777 146.368C67.1555 145.781 66.7212 145.024 66.023 145.024H56.7085C55.9093 145.024 55.2304 145.589 54.6804 146.169C51.3256 149.706 37.7802 149.283 20.991 149.83C20.2049 149.856 19.467 150.223 18.9719 150.834L18.0919 151.92C17.6046 152.522 18.0474 153.418 18.8213 153.397L54.2299 152.409Z" fill="#3A3A3A" stroke="black" stroke-width="2.26535" stroke-linejoin="round"/>
<path d="M133.761 32.9802C1.894 36.8143 -93.2863 72.7155 -160.93 129.259C12.7775 124.184 123.456 120.079 304.16 103.752C354.018 99.2468 372.504 90.6763 385.428 77.6087C317.099 50.5197 219.952 30.4741 133.761 32.9802Z" fill="#3A3A3A"/>
<path d="M-160.93 129.259L-161.366 128.737C-161.588 128.923 -161.668 129.229 -161.565 129.5C-161.462 129.771 -161.199 129.946 -160.91 129.938L-160.93 129.259ZM133.761 32.9802L133.741 32.3008L133.761 32.9802ZM385.428 77.6087L385.911 78.0866C386.072 77.9243 386.14 77.6925 386.093 77.4692C386.046 77.2459 385.891 77.061 385.678 76.9769L385.428 77.6087ZM304.16 103.752L304.099 103.075L304.16 103.752ZM-160.494 129.78C-92.9924 73.3557 2.03017 37.4902 133.781 33.6595L133.741 32.3008C1.75783 36.1384 -93.5801 72.0754 -161.366 128.737L-160.494 129.78ZM133.781 33.6595C219.871 31.1563 316.926 51.1823 385.177 78.2404L385.678 76.9769C317.271 49.8571 220.033 29.7918 133.741 32.3008L133.781 33.6595ZM384.945 77.1308C372.195 90.0225 353.913 98.574 304.099 103.075L304.221 104.429C354.123 99.9197 372.813 91.3301 385.911 78.0866L384.945 77.1308ZM304.099 103.075C123.415 119.401 12.7524 123.505 -160.95 128.579L-160.91 129.938C12.8026 124.863 123.497 120.758 304.221 104.429L304.099 103.075Z" fill="black"/>
<path d="M96.2309 50.9678C85.345 75.9321 80.4605 89.6263 72.4447 113.879C11.6515 117.025 -22.4308 118.643 -83.185 119.2L-88.5312 103.193C-36.4843 71.3919 -1.28282 56.9773 96.2309 50.9678Z" fill="#747476"/>
<mask id="path-105-outside-3_209_8307" maskUnits="userSpaceOnUse" x="-182.828" y="28.9854" width="589" height="111" fill="black">
<rect fill="white" x="-182.828" y="28.9854" width="589" height="111"/>
<path fill-rule="evenodd" clip-rule="evenodd" d="M402.506 78.6058C388.778 93.2291 368.149 101.752 315.2 107.013C133.58 125.059 18.5446 128.924 -147.255 134.493C-157.573 134.84 -168.088 135.193 -178.828 135.557C-12.5514 9.92033 200.664 10.7812 402.506 78.6058ZM385.607 79.5118C372.682 92.5794 354.015 99.2471 304.158 103.752C123.454 120.08 12.7752 124.185 -160.932 129.259C1.26711 8.47039 216.022 19.0723 385.607 79.5118Z"/>
</mask>
<path fill-rule="evenodd" clip-rule="evenodd" d="M402.506 78.6058C388.778 93.2291 368.149 101.752 315.2 107.013C133.58 125.059 18.5446 128.924 -147.255 134.493C-157.573 134.84 -168.088 135.193 -178.828 135.557C-12.5514 9.92033 200.664 10.7812 402.506 78.6058ZM385.607 79.5118C372.682 92.5794 354.015 99.2471 304.158 103.752C123.454 120.08 12.7752 124.185 -160.932 129.259C1.26711 8.47039 216.022 19.0723 385.607 79.5118Z" fill="#3A3A3A"/>
<path d="M315.2 107.013L315.558 110.62L315.2 107.013ZM402.506 78.6058L405.149 81.0866C405.994 80.1868 406.323 78.9188 406.022 77.7218C405.721 76.5248 404.831 75.5632 403.661 75.1701L402.506 78.6058ZM-147.255 134.493L-147.133 138.116L-147.255 134.493ZM-178.828 135.557L-181.013 132.665C-182.274 133.618 -182.772 135.277 -182.245 136.767C-181.717 138.257 -180.285 139.233 -178.705 139.179L-178.828 135.557ZM304.158 103.752L303.832 100.142L304.158 103.752ZM385.607 79.5118L388.184 82.0606C389.055 81.1794 389.416 79.914 389.141 78.7057C388.865 77.4974 387.991 76.5137 386.823 76.0976L385.607 79.5118ZM-160.932 129.259L-163.097 126.352C-164.366 127.297 -164.875 128.955 -164.355 130.449C-163.836 131.944 -162.407 132.928 -160.826 132.882L-160.932 129.259ZM315.558 110.62C368.61 105.349 390.446 96.7483 405.149 81.0866L399.864 76.125C387.11 89.7099 367.688 98.1557 314.842 103.407L315.558 110.62ZM-147.133 138.116C18.6761 132.546 133.812 128.679 315.558 110.62L314.842 103.407C133.348 121.44 18.413 125.301 -147.376 130.871L-147.133 138.116ZM-178.705 139.179C-167.966 138.816 -157.452 138.462 -147.133 138.116L-147.376 130.871C-157.695 131.217 -168.21 131.571 -178.951 131.934L-178.705 139.179ZM403.661 75.1701C201.194 7.13589 -13.4194 6.03335 -181.013 132.665L-176.643 138.449C-11.6833 13.8073 200.133 14.4265 401.352 82.0416L403.661 75.1701ZM304.484 107.362C354.334 102.858 374.248 96.1514 388.184 82.0606L383.03 76.9631C371.117 89.0075 353.697 95.6365 303.832 100.142L304.484 107.362ZM-160.826 132.882C12.9092 127.807 123.672 123.699 304.484 107.362L303.832 100.142C123.235 116.46 12.6412 120.562 -161.038 125.636L-160.826 132.882ZM386.823 76.0976C216.646 15.4468 0.462753 4.55019 -163.097 126.352L-158.767 132.166C2.07146 12.3906 215.398 22.6977 384.39 82.926L386.823 76.0976Z" fill="black" mask="url(#path-105-outside-3_209_8307)"/>
<path d="M276.734 63.9994C274.411 79.8464 272.289 87.785 267.126 100.355C216.98 105.506 188.106 107.823 133.113 109.324C133.712 96.9854 132.969 91.4714 127.402 87.1623L136.24 49.0654C190.796 50.7277 221.469 52.8039 276.734 63.9994Z" fill="#747476"/>
<ellipse opacity="0.2" cx="3.7942" cy="90.8705" rx="40.7962" ry="3.82053" transform="rotate(-34.7645 3.7942 90.8705)" fill="black"/>
<ellipse opacity="0.2" cx="41.0403" cy="85.977" rx="40.7962" ry="3.82053" transform="rotate(-34.7645 41.0403 85.977)" fill="black"/>
<path d="M109.371 37.1943C96.375 68.6364 90.3518 83.1259 78.5625 119.2" stroke="black" stroke-width="2.26535"/>
<path d="M131.209 36.1533C123.368 69.3938 119.962 85.0236 113.539 117.933" stroke="black" stroke-width="2.26535"/>
<path d="M307.045 57.3115L298.527 102.392" stroke="black" stroke-width="2.26535"/>
<ellipse cx="114.453" cy="54.1367" rx="3.71518" ry="6.29768" transform="rotate(48.0068 114.453 54.1367)" fill="#747476"/>
<path d="M-155.406 259.743C-143.394 251.949 209.225 218.467 236.047 241.347C84.4503 253.279 -1.44894 256.599 -155.406 259.743Z" fill="#EDBF54"/>
<path d="M-174.425 261.156C-175.16 261.171 -174.961 260.336 -173.899 260.304C-172.258 260.255 -170.618 260.205 -168.978 260.155C-164.486 260.019 -159.994 259.881 -155.503 259.743C-142.237 259.336 -128.972 258.922 -115.706 258.503C-75.7588 257.241 -35.8123 255.939 4.12709 254.445C87.0825 251.341 169.938 247.27 252.651 240.092C252.953 240.066 253.04 240.51 252.75 240.598C252.146 240.781 251.37 240.739 250.741 240.801C249.05 240.968 247.358 241.134 245.666 241.298C240.385 241.812 235.103 242.316 229.819 242.809C214.089 244.276 198.35 245.643 182.602 246.9C135.432 250.667 88.1835 253.417 40.9005 255.275C-30.8389 258.094 -102.648 259.683 -174.425 261.156Z" fill="black"/>
<path d="M-200.564 178.279C-200.968 178.304 -201.146 177.75 -200.802 177.531C-200.447 177.306 -199.821 177.414 -199.432 177.386C-197.271 177.233 -195.11 177.079 -192.949 176.926C-187.157 176.514 -181.365 176.103 -175.573 175.693C-158.13 174.458 -140.686 173.235 -123.239 172.048C-70.6863 168.475 -18.1051 165.317 34.5012 162.67C126.621 158.036 218.836 154.988 311.052 153.18C311.44 153.172 311.588 153.71 311.25 153.905C310.897 154.108 310.294 153.976 309.916 153.986C307.621 154.048 305.325 154.11 303.029 154.172C297.202 154.332 291.375 154.495 285.549 154.661C267.667 155.171 249.786 155.713 231.907 156.288C178.633 158.003 125.369 160.015 72.1265 162.532C-18.824 166.83 -109.685 172.698 -200.564 178.279Z" fill="black"/>
<path d="M545.434 100.2C546.572 99.6806 547.66 101.149 546.719 102.036C545.918 102.792 544.408 103.24 543.414 103.721C540.777 104.997 538.092 106.174 535.378 107.275C526.3 110.956 516.833 113.908 507.385 116.473C507.031 116.57 506.811 116.074 507.132 115.886C508.46 115.108 510.326 114.775 511.783 114.262C515.233 113.047 518.673 111.804 522.092 110.507C530.086 107.472 537.671 103.745 545.434 100.2Z" fill="black"/>
<path d="M514.591 155.898H537.243C535.923 148.402 538.048 146.744 545.217 146.792V140.585L535.268 125.409C533.664 122.962 530.971 121.439 528.047 121.328C502.573 120.359 486.164 120.212 458.529 120.572C457.691 120.583 457.312 121.627 457.955 122.166C475.148 136.556 486.187 144.003 503.389 153.144C506.834 154.975 510.69 155.898 514.591 155.898Z" fill="#303030"/>
<path d="M537.243 155.898V157.711C537.778 157.711 538.286 157.474 538.631 157.063C538.975 156.653 539.12 156.112 539.027 155.584L537.243 155.898ZM503.389 153.144L504.239 151.544L503.389 153.144ZM457.955 122.166L459.118 120.776L457.955 122.166ZM458.529 120.572L458.505 118.759L458.529 120.572ZM528.047 121.328L528.116 119.517L528.047 121.328ZM535.268 125.409L533.753 126.403V126.403L535.268 125.409ZM545.217 140.585H547.029V140.043L546.732 139.591L545.217 140.585ZM545.217 146.792L545.205 148.604C545.687 148.607 546.151 148.417 546.494 148.077C546.836 147.737 547.029 147.274 547.029 146.792H545.217ZM537.243 154.086H514.591V157.711H537.243V154.086ZM504.239 151.544C487.159 142.467 476.224 135.093 459.118 120.776L456.792 123.555C474.073 138.019 485.215 145.538 502.538 154.745L504.239 151.544ZM458.553 122.384C486.161 122.025 502.539 122.171 527.978 123.139L528.116 119.517C502.606 118.547 486.166 118.4 458.505 118.759L458.553 122.384ZM533.753 126.403L543.701 141.578L546.732 139.591L536.784 124.416L533.753 126.403ZM543.404 140.585V146.792H547.029V140.585H543.404ZM545.229 144.979C543.389 144.967 541.751 145.061 540.365 145.372C538.967 145.685 537.689 146.248 536.725 147.276C534.794 149.334 534.802 152.486 535.458 156.212L539.027 155.584C538.364 151.814 538.775 150.389 539.368 149.756C539.666 149.438 540.181 149.127 541.157 148.909C542.144 148.688 543.46 148.592 545.205 148.604L545.229 144.979ZM527.978 123.139C530.315 123.228 532.469 124.446 533.753 126.403L536.784 124.416C534.858 121.479 531.627 119.65 528.116 119.517L527.978 123.139ZM459.118 120.776C459.788 121.336 459.365 122.373 458.553 122.384L458.505 118.759C456.016 118.792 454.837 121.919 456.792 123.555L459.118 120.776ZM514.591 154.086C510.974 154.086 507.413 153.23 504.239 151.544L502.538 154.745C506.256 156.72 510.405 157.711 514.591 157.711V154.086Z" fill="black"/>
<path d="M423.359 150.394C423.065 150.388 423.043 149.942 423.337 149.91C424.413 149.795 425.555 149.887 426.638 149.876C429.186 149.848 431.735 149.817 434.283 149.784C441.868 149.686 449.452 149.569 457.036 149.442C470.615 149.214 484.225 148.684 497.808 148.736C499.128 148.741 499.456 150.652 498.174 151.047C496.678 151.508 492.662 151.11 490.908 151.109C484.231 151.105 477.554 151.067 470.877 151.012C455.038 150.882 439.195 150.726 423.359 150.394ZM497.796 151.099C496.477 151 496.213 149.081 497.557 148.767C499.917 148.216 504.926 148.305 507.256 148.195C508.604 148.131 509.173 150.012 507.857 150.557C507.107 150.867 505.555 150.739 504.594 150.785C502.384 150.89 500.004 151.266 497.796 151.099ZM508.579 149.723C508.205 151.026 506.23 150.876 506.156 149.485C506.079 148.044 507.681 142.709 508.042 140.801C509.076 135.34 509.31 129.909 509.625 124.377C509.707 122.947 511.78 122.648 512.168 124.068C512.585 125.593 511.916 131.007 511.741 132.871C511.21 138.531 510.146 144.256 508.579 149.723ZM511.783 123.445C512.732 124.382 511.857 126.075 510.52 125.641C509.471 125.301 506.349 122.219 505.496 121.408C504.51 120.47 505.405 118.729 506.763 119.193C507.732 119.524 510.845 122.519 511.783 123.445ZM506.921 119.259C508.345 119.98 507.381 122.204 505.884 121.638C504.365 121.064 502.902 120.171 501.443 119.455C498.515 118.017 495.581 116.59 492.641 115.177C481.584 109.861 470.429 104.753 459.157 99.9078C440.708 91.9771 421.954 84.8362 403.271 77.4866C402.037 77.0013 402.557 75.088 403.869 75.3133C405.352 75.5677 406.963 76.4762 408.375 77.018C411.49 78.2132 414.604 79.4102 417.718 80.6106C428.795 84.8817 439.857 89.1983 450.835 93.7216C469.819 101.544 488.603 109.974 506.921 119.259Z" fill="black"/>
<path d="M-215.447 287.325C-217.474 287.397 -218.248 284.53 -216.23 283.814C-215.542 283.57 -213.817 283.68 -212.782 283.662C-210.243 283.619 -207.705 283.576 -205.166 283.534C-196.712 283.392 -188.257 283.248 -179.803 283.106C-152.975 282.655 -126.147 282.2 -99.3195 281.748C-45.4605 280.841 8.39838 279.933 62.2573 279.023C79.8046 278.726 97.3519 278.429 114.899 278.135C120.631 278.038 126.363 277.943 132.094 277.845C134.864 277.797 137.873 277.404 140.634 277.704C141.66 277.815 141.816 279.317 140.761 279.528C139.453 279.789 137.918 279.604 136.593 279.633C133.554 279.7 130.515 279.767 127.476 279.833C117.504 280.05 107.532 280.27 97.5591 280.487C67.6261 281.138 37.6933 281.796 7.76048 282.45C-41.9004 283.537 -91.5614 284.621 -141.222 285.707C-165.802 286.245 -191.25 286.474 -215.447 287.325ZM190.212 278.051C189.761 278.051 189.677 277.385 190.121 277.285C191.38 277.001 192.885 277.161 194.18 277.043C197.395 276.748 200.585 276.194 203.711 275.389C213.121 272.966 221.898 268.252 229.124 261.756C232.618 258.615 235.6 255.001 238.67 251.458C242.583 246.944 246.495 242.43 250.398 237.907C263.041 223.255 275.564 208.497 287.63 193.364C299.65 178.289 311.211 162.854 322.379 147.137C328.315 138.783 334.025 130.277 339.89 121.875C340.973 120.323 343.488 121.52 342.901 123.343C342.387 124.94 340.27 127.251 339.259 128.693C336.442 132.713 333.606 136.72 330.749 140.711C320.944 154.406 310.864 167.904 300.442 181.136C284.825 200.965 268.359 220.088 251.648 238.998C247.691 243.475 243.725 247.944 239.76 252.414C236.584 255.992 233.508 259.63 229.9 262.782C219.053 272.259 204.683 278.037 190.212 278.051ZM342.519 121.661C343.688 122.985 342.298 125.107 340.617 124.377C339.581 123.927 333.77 116.933 332.591 115.802C329.179 112.526 326.113 105.658 324.255 101.258C323.547 99.5826 325.505 97.907 327.004 99.0596C327.666 99.5687 327.965 100.666 328.34 101.402C329.091 102.874 332.521 110.895 333.506 112.221C336.124 115.747 339.632 118.39 342.519 121.661Z" fill="black"/>
<path d="M91.6511 118.294C92.1971 116.355 95.1379 116.568 95.2231 118.646C95.2721 119.841 94.6097 121.316 94.3117 122.475C93.6252 125.145 91.101 135.231 90.4535 137.911C88.5658 145.725 87.2316 153.643 85.466 161.478C85.1055 163.078 82.7152 163.064 82.5075 161.383C82.3483 160.095 82.9577 158.393 83.183 157.112C83.7329 153.986 84.3012 150.863 84.9069 147.748C86.3365 140.394 89.6197 125.507 91.6511 118.294ZM82.4986 161.114C82.6341 159.446 85.0801 159.204 85.4556 160.87C85.7761 162.293 84.9865 168.135 84.854 170C84.2605 178.349 83.7189 186.703 83.2604 195.061C82.2037 214.325 81.9382 233.599 81.1999 252.872C81.1706 253.638 80.0589 253.797 79.8393 253.052C79.5132 251.946 79.827 250.3 79.8349 249.142C79.8551 246.203 79.8774 243.263 79.9033 240.323C79.9864 230.891 80.1114 221.458 80.3377 212.028C80.7444 195.082 81.1261 178.012 82.4986 161.114ZM79.8185 252.958C79.7482 252.126 80.9562 251.841 81.1771 252.679C81.6507 254.473 81.4108 257.287 81.5052 259.284C81.7197 263.827 81.9357 268.369 82.1504 272.911C82.2513 275.046 82.6409 277.378 82.4613 279.513C82.4186 280.02 81.6832 280.125 81.5537 279.609C81.0081 277.437 81.2322 274.778 81.0881 272.554C80.6677 266.065 80.3519 259.271 79.8185 252.958Z" fill="black"/>
<path d="M459.376 119.427C460.702 119.461 460.88 121.435 459.563 121.674C457.557 122.037 453.05 121.587 450.781 121.553C443.074 121.44 435.367 121.357 427.659 121.315C404.497 121.186 381.33 121.424 358.182 122.279C328.893 123.361 299.662 125.503 270.496 128.376C251.575 130.24 232.707 132.518 213.813 134.617C213.243 134.681 213.016 133.869 213.543 133.635C214.39 133.26 215.741 133.341 216.663 133.227C219.499 132.878 222.335 132.531 225.171 132.187C233.614 131.164 242.061 130.17 250.512 129.217C275.85 126.361 301.236 123.902 326.681 122.221C357.527 120.183 388.432 119.326 419.343 119.22C432.678 119.174 446.044 119.077 459.376 119.427Z" fill="black"/>
<path d="M399.601 61.75L391.129 72.5784" stroke="black" stroke-width="2.26535"/>
<path d="M558.407 204.538C559.28 203.799 560.653 204.663 560.23 205.776C559.805 206.893 557.713 207.995 556.743 208.634C553.055 211.067 548.879 212.612 544.591 213.608C533.066 216.285 519.715 216.29 507.932 216.202C507.463 216.198 507.374 215.507 507.836 215.399C509.606 214.985 511.815 215.246 513.638 215.169C518.009 214.987 522.38 214.765 526.742 214.424C538.012 213.54 549.513 212.067 558.407 204.538Z" fill="black"/>
<path d="M551.819 249.184C552.669 248.429 554.06 249.242 553.676 250.367C553.147 251.913 548.768 253.847 547.321 254.441C541.355 256.892 534.825 258.016 528.489 259.034C513.094 261.507 497.455 263.122 481.935 264.56C481.366 264.612 481.141 263.807 481.67 263.573C482.814 263.067 487.808 262.788 489.273 262.607C495.035 261.893 500.798 261.181 506.556 260.431C516.592 259.125 526.706 257.847 536.57 255.53C541.824 254.296 547.681 252.859 551.819 249.184Z" fill="black"/>
<path d="M539.601 244.202L548.844 241.483V244.61L546.986 248.144L535.569 251.904H529.316L539.601 244.202Z" fill="#CD2B2B" stroke="black" stroke-width="0.0906141"/>
<path d="M552.964 240.26C539.856 243.142 532.244 247.333 522.789 259.107" stroke="black" stroke-width="2.26535"/>
<path d="M548.976 241.755C549.51 248.15 544.141 250.511 528.09 253.172" stroke="black" stroke-width="2.26535"/>
<path d="M245.089 283.913C245.335 283.951 245.371 284.318 245.118 284.379C243.857 284.681 242.248 284.439 240.963 284.462C237.989 284.515 235.015 284.573 232.04 284.63C223.139 284.801 214.238 284.972 205.336 285.142C178.595 285.652 151.855 286.186 125.114 286.692C52.4137 288.068 -20.2873 289.115 -92.9962 289.902C-116.479 290.156 -139.961 290.406 -163.443 290.66C-171.141 290.743 -178.84 290.827 -186.538 290.913C-189.045 290.941 -191.552 290.97 -194.058 290.999C-195.181 291.012 -196.418 291.181 -197.535 291.037C-197.982 290.979 -198.047 290.309 -197.587 290.211C-196.415 289.962 -195 290.157 -193.811 290.136C-190.937 290.086 -188.063 290.034 -185.19 289.982C-176.569 289.824 -167.948 289.667 -159.328 289.509C-133.619 289.039 -107.91 288.552 -82.201 288.085C-8.13734 286.737 65.9262 285.699 139.998 284.962C163.668 284.727 187.337 284.495 211.007 284.26C218.705 284.184 226.403 284.107 234.102 284.027C236.651 284.001 239.2 283.974 241.748 283.946C242.814 283.935 244.031 283.749 245.089 283.913Z" fill="black"/>
<path d="M533.09 134.645C530.263 133.496 525.388 133.066 518.444 133.199C513.231 136.737 521.928 136.536 532.783 135.872C533.584 135.823 533.833 134.947 533.09 134.645Z" fill="#C4C4C4"/>
<path d="M476.946 131.575C487.534 130.941 493.966 130.556 507.054 131.039C507.522 131.056 507.905 131.428 507.923 131.896C508.035 134.868 507.819 136.881 507.172 139.498C506.89 140.639 505.867 141.434 504.693 141.471C500.719 141.597 497.684 141.582 492.109 141.461C490.365 141.423 488.658 140.924 487.166 140.021C482.887 137.432 479.739 135.478 476.451 132.509C476.099 132.191 476.31 131.613 476.784 131.585L476.946 131.575Z" fill="#E82127" stroke="black" stroke-width="1.35921"/>
<path d="M535.25 138.32H538.467C538.119 133.68 537.453 131.782 536.02 128.76C533.19 124.47 531.022 123.522 526.687 123.006L519.438 122.1C515.672 121.627 514.533 123.33 513.684 128.76L510.033 149.349C509.643 151.548 511.317 153.574 513.55 153.605C522.541 153.729 528.169 153.717 532.622 152.863L531.535 147.698C527.341 148.195 524.619 148.187 520.398 147.847C519.43 147.769 518.704 146.934 518.749 145.965L519.438 131.342C519.595 126.701 521.447 125.971 526.687 126.721C534.157 127.631 534.228 131.753 535.25 138.32Z" fill="#E82127" stroke="black" stroke-width="1.35921"/>
<path d="M432.223 210.719C458.307 208.352 474.308 206.589 498.457 203.595C504 202.908 508.452 198.663 509.355 193.152C511.563 179.676 512.809 170.241 514.41 155.853" stroke="black" stroke-width="1.35921"/>
<path d="M-395.131 304.867C-408.602 304.051 -437.937 301.758 -447.506 299.111C-452.943 294.942 -467.396 288.551 -467.622 284.246C-467.804 280.801 -458.334 277.191 -453.577 275.816C-454.846 268.746 -457.655 265.184 -460.011 262.9C-462.367 260.615 -467.758 257.386 -470.159 256.056C-468.951 253.835 -466.535 247.454 -466.535 239.695C-466.535 231.936 -471.655 220.298 -470.93 202.305C-465.508 195.009 -445.739 180.781 -408.904 168.632C-385.707 155.67 -316.886 130.154 -224.822 130.154C-69.1645 15.396 143.219 -22.5999 387.231 52.1116C438.433 67.7886 499.599 98.0738 546.938 100.197C536.797 115.795 537.702 124.622 545.352 140.442V146.696C538.958 146.472 536.1 148.101 537.197 155.262C542.873 192.316 548.871 195.835 559.035 205.387C560.064 216.896 558.004 225.167 552.42 241.236V250.028C549.005 259.409 546.408 263.49 541.365 270.06C549.493 277.387 538.578 282.447 452.428 295.576M-214.447 307.541L267.892 304.912" stroke="black" stroke-width="4.5307" stroke-linecap="round" stroke-linejoin="round"/>
<path d="M-225 130.391C-206.576 131.218 -196.773 127.617 -179.693 118.067C9.1015 -5.98336 223.676 -1.12614 444.412 77.6534C456.66 82.0248 463.515 84.4532 472.774 83.2262" stroke="black" stroke-width="1.81228"/>
</g>
<defs>
<filter id="filter0_d_209_8307" x="-485.83" y="0.508789" width="1059.95" height="379.073" filterUnits="userSpaceOnUse" color-interpolation-filters="sRGB">
<feFlood flood-opacity="0" result="BackgroundImageFix"/>
<feColorMatrix in="SourceAlpha" type="matrix" values="0 0 0 0 0 0 0 0 0 0 0 0 0 0 0 0 0 0 127 0" result="hardAlpha"/>
<feOffset dy="1.79072"/>
<feGaussianBlur stdDeviation="0.895358"/>
<feComposite in2="hardAlpha" operator="out"/>
<feColorMatrix type="matrix" values="0 0 0 0 0 0 0 0 0 0 0 0 0 0 0 0 0 0 0.25 0"/>
<feBlend mode="normal" in2="BackgroundImageFix" result="effect1_dropShadow_209_8307"/>
<feBlend mode="normal" in="SourceGraphic" in2="effect1_dropShadow_209_8307" result="shape"/>
</filter>
</defs>
</svg>
