<svg width="486" height="380" viewBox="0 0 486 380" fill="none" xmlns="http://www.w3.org/2000/svg">
<g filter="url(#filter0_d_209_7631)">
<mask id="path-1-outside-1_209_7631" maskUnits="userSpaceOnUse" x="1" y="-0.456055" width="1058" height="364" fill="black">
<rect fill="white" x="1" y="-0.456055" width="1058" height="364"/>
<path fill-rule="evenodd" clip-rule="evenodd" d="M90.869 304.868C77.3977 304.052 48.0629 301.759 38.494 299.112C36.7088 297.743 33.9515 296.134 31.045 294.439L31.0441 294.438L31.0434 294.438C25.0985 290.97 18.5299 287.138 18.3777 284.247C18.1965 280.802 27.6657 277.192 32.4229 275.817C31.1543 268.747 28.3453 265.185 25.9893 262.901C23.6333 260.616 18.2418 257.387 15.8405 256.057C17.0487 253.836 19.4651 247.455 19.4651 239.696C19.4651 236.783 18.7434 233.323 17.8802 229.185C16.4445 222.302 14.6176 213.543 15.0703 202.306C20.4921 195.01 40.261 180.782 77.0956 168.633C100.293 155.671 169.114 130.155 261.178 130.155C416.835 15.397 629.219 -22.599 873.231 52.1126C889.678 57.1484 907.154 63.6917 924.869 70.3246C962.303 84.3405 1000.81 98.7569 1032.94 100.198C1022.8 115.796 1023.7 124.623 1031.35 140.443V146.697C1024.96 146.473 1022.1 148.102 1023.2 155.263C1028.53 190.082 1034.15 195.289 1043.24 203.716C1043.82 204.258 1044.42 204.812 1045.04 205.388C1046.06 216.897 1044 225.168 1038.42 241.237V250.029C1035 259.41 1032.41 263.491 1027.37 270.061C1035.49 277.388 1024.58 282.448 938.428 295.577L920.029 296.508C917.168 303.278 913.387 309.564 908.842 315.21C975.502 318.883 1015.36 323.541 1015.36 328.609C1015.36 340.47 797.097 350.085 527.856 350.085C394.46 350.085 273.577 347.725 185.554 343.901C182.121 344.358 178.618 344.594 175.059 344.594C168.918 344.594 162.941 343.891 157.204 342.56C84.3492 338.807 40.352 333.935 40.352 328.609C40.352 324.4 67.8426 320.474 115.346 317.16C112.14 313.428 109.278 309.393 106.808 305.104L90.869 304.868ZM782.519 310.293C781.058 308.159 779.699 305.949 778.45 303.671L753.892 304.913L271.553 307.542L242.118 307.106C241.239 308.534 240.315 309.931 239.349 311.297C320.131 308.68 419.895 307.134 527.856 307.134C621.193 307.134 708.404 308.289 782.519 310.293Z"/>
</mask>
<path d="M38.494 299.112L30.5592 309.458C31.889 310.478 33.4029 311.232 35.018 311.679L38.494 299.112ZM90.869 304.868L90.0808 317.883C90.279 317.895 90.4775 317.902 90.676 317.905L90.869 304.868ZM31.045 294.439L37.6151 283.176C37.4824 283.099 37.3482 283.024 37.2128 282.951L31.045 294.439ZM31.0441 294.438L24.7035 305.832C24.7608 305.864 24.8184 305.895 24.8762 305.926L31.0441 294.438ZM31.0434 294.438L24.4735 305.701C24.5495 305.745 24.6259 305.789 24.7028 305.831L31.0434 294.438ZM18.3777 284.247L5.35694 284.932L18.3777 284.247ZM32.4229 275.817L36.0427 288.343C42.4584 286.489 46.4362 280.088 45.2567 273.514L32.4229 275.817ZM25.9893 262.901L16.9132 272.262H16.9132L25.9893 262.901ZM15.8405 256.057L4.38707 249.826C0.963545 256.119 3.25785 263.995 9.52516 267.464L15.8405 256.057ZM17.8802 229.185L30.6443 226.523H30.6443L17.8802 229.185ZM15.0703 202.306L4.60443 194.53C3.04061 196.634 2.14764 199.161 2.04209 201.781L15.0703 202.306ZM77.0956 168.633L81.1798 181.015C81.9686 180.755 82.7307 180.42 83.4557 180.015L77.0956 168.633ZM261.178 130.155V143.194C263.963 143.194 266.674 142.303 268.916 140.65L261.178 130.155ZM873.231 52.1126L869.414 64.5801L873.231 52.1126ZM924.869 70.3246L929.441 58.1137L924.869 70.3246ZM1032.94 100.198L1043.87 107.305C1046.42 103.384 1046.67 98.3979 1044.54 94.2381C1042.4 90.0782 1038.19 87.3821 1033.52 87.1725L1032.94 100.198ZM1031.35 140.443H1044.39C1044.39 138.477 1043.95 136.537 1043.09 134.767L1031.35 140.443ZM1031.35 146.697L1030.89 159.728C1034.43 159.853 1037.86 158.535 1040.41 156.078C1042.95 153.621 1044.39 150.235 1044.39 146.697H1031.35ZM1023.2 155.263L1036.09 153.289V153.289L1023.2 155.263ZM1043.24 203.716L1034.38 213.279L1034.38 213.28L1043.24 203.716ZM1045.04 205.388L1058.02 204.228C1057.74 201.044 1056.29 198.076 1053.96 195.887L1045.04 205.388ZM1038.42 241.237L1026.1 236.957C1025.63 238.334 1025.38 239.78 1025.38 241.237H1038.42ZM1038.42 250.029L1050.67 254.49C1051.19 253.061 1051.46 251.551 1051.46 250.029H1038.42ZM1027.37 270.061L1017.02 262.123C1012.88 267.519 1013.58 275.192 1018.64 279.746L1027.37 270.061ZM938.428 295.577L939.087 308.599C939.524 308.577 939.959 308.533 940.392 308.467L938.428 295.577ZM920.029 296.508L919.37 283.486C914.375 283.738 909.965 286.826 908.019 291.432L920.029 296.508ZM908.842 315.21L898.685 307.033C895.619 310.842 894.941 316.047 896.931 320.514C898.92 324.981 903.242 327.96 908.124 328.229L908.842 315.21ZM185.554 343.901L186.12 330.874C185.355 330.841 184.59 330.875 183.831 330.976L185.554 343.901ZM157.204 342.56L160.15 329.858C159.403 329.685 158.641 329.578 157.874 329.538L157.204 342.56ZM115.346 317.16L116.254 330.167C121.173 329.824 125.477 326.735 127.378 322.185C129.278 317.635 128.449 312.402 125.236 308.662L115.346 317.16ZM106.808 305.104L118.108 298.598C115.816 294.616 111.596 292.134 107.001 292.066L106.808 305.104ZM782.519 310.293L782.166 323.327C787.065 323.46 791.625 320.834 793.969 316.531C796.313 312.227 796.046 306.973 793.279 302.929L782.519 310.293ZM778.45 303.671L789.884 297.403C787.481 293.02 782.784 290.396 777.792 290.648L778.45 303.671ZM753.892 304.913L753.963 317.952C754.159 317.951 754.355 317.945 754.551 317.935L753.892 304.913ZM271.553 307.542L271.361 320.579C271.449 320.58 271.537 320.581 271.625 320.58L271.553 307.542ZM242.118 307.106L242.311 294.069C237.716 294.001 233.425 296.356 231.016 300.269L242.118 307.106ZM239.349 311.297L228.705 303.766C225.846 307.807 225.522 313.117 227.868 317.476C230.213 321.834 234.824 324.489 239.771 324.329L239.349 311.297ZM35.018 311.679C41.0854 313.357 51.9844 314.672 61.9399 315.653C72.3508 316.678 83.2199 317.467 90.0808 317.883L91.6571 291.853C85.0468 291.453 74.5128 290.687 64.4963 289.701C54.0243 288.669 45.4716 287.514 41.9701 286.545L35.018 311.679ZM24.4748 305.701C27.6866 307.575 29.5841 308.711 30.5592 309.458L46.4289 288.766C43.8336 286.775 40.2164 284.694 37.6151 283.176L24.4748 305.701ZM24.8762 305.926L24.8771 305.927L37.2128 282.951L37.212 282.951L24.8762 305.926ZM24.7028 305.831L24.7035 305.832L37.3847 283.045L37.3841 283.045L24.7028 305.831ZM5.35694 284.932C5.6316 290.152 8.50335 293.733 9.84653 295.242C11.4689 297.064 13.3354 298.553 14.8569 299.662C17.9095 301.888 21.6729 304.067 24.4735 305.701L37.6134 283.175C34.469 281.341 31.9756 279.871 30.2197 278.59C29.3368 277.947 29.1612 277.719 29.3233 277.901C29.4239 278.014 29.8205 278.47 30.2426 279.267C30.665 280.064 31.2923 281.543 31.3985 283.562L5.35694 284.932ZM28.8031 263.291C25.9301 264.121 21.5271 265.642 17.6057 267.65C15.708 268.622 13.2507 270.043 11.0962 271.986C9.43365 273.484 4.9883 277.926 5.35694 284.932L31.3985 283.562C31.5415 286.279 30.6791 288.349 30.0033 289.511C29.3609 290.614 28.7178 291.21 28.5574 291.354C28.2761 291.608 28.4495 291.395 29.491 290.862C31.4482 289.859 34.1585 288.888 36.0427 288.343L28.8031 263.291ZM16.9132 272.262C17.4593 272.791 17.8657 273.272 18.2417 273.943C18.6278 274.631 19.1895 275.893 19.5891 278.12L45.2567 273.514C43.4374 263.375 39.0846 257.436 35.0654 253.539L16.9132 272.262ZM9.52516 267.464C10.4939 268.001 12.1799 268.986 13.8397 270.062C14.6638 270.596 15.405 271.103 16.0082 271.548C16.6637 272.032 16.9208 272.269 16.9132 272.262L35.0654 253.539C32.9024 251.442 30.0315 249.481 28.0241 248.18C25.7989 246.737 23.5884 245.443 22.1559 244.65L9.52516 267.464ZM6.4263 239.696C6.4263 242.252 6.02354 244.651 5.50409 246.606C5.24732 247.573 4.97618 248.378 4.74531 248.978C4.49936 249.618 4.352 249.89 4.38707 249.826L27.294 262.288C29.4506 258.324 32.5039 249.817 32.5039 239.696H6.4263ZM5.11615 231.847C6.07737 236.456 6.4263 238.427 6.4263 239.696H32.5039C32.5039 235.14 31.4093 230.19 30.6443 226.523L5.11615 231.847ZM2.04209 201.781C1.51957 214.75 3.66046 224.869 5.11615 231.847L30.6443 226.523C29.2286 219.735 27.7156 212.336 28.0985 202.831L2.04209 201.781ZM73.0115 156.25C53.8384 162.574 38.8305 169.528 27.714 176.038C16.9646 182.333 8.87672 188.78 4.60443 194.53L25.5362 210.083C26.6856 208.536 31.1931 204.221 40.8923 198.541C50.2243 193.075 63.5183 186.841 81.1798 181.015L73.0115 156.25ZM261.178 117.117C167.014 117.116 95.984 143.142 70.7355 157.25L83.4557 180.015C104.602 168.2 171.215 143.194 261.178 143.194V117.117ZM877.048 39.6451C629.65 -36.1033 412.865 2.12473 253.441 119.66L268.916 140.65C420.806 28.6692 628.788 -9.09461 869.414 64.5801L877.048 39.6451ZM929.441 58.1137C911.812 51.513 893.948 44.8195 877.048 39.6451L869.414 64.5801C885.408 69.4773 902.496 75.8703 920.297 82.5355L929.441 58.1137ZM1033.52 87.1725C1003.9 85.8437 967.549 72.3821 929.441 58.1137L920.297 82.5355C957.056 96.2988 997.714 111.67 1032.35 113.224L1033.52 87.1725ZM1043.09 134.767C1039.45 127.245 1038.47 123.376 1038.51 120.418C1038.55 117.754 1039.46 114.092 1043.87 107.305L1022.01 93.0909C1016.28 101.902 1012.57 110.453 1012.44 120.057C1012.31 129.367 1015.6 137.822 1019.61 146.12L1043.09 134.767ZM1044.39 146.697V140.443H1018.31V146.697H1044.39ZM1036.09 153.289C1035.93 152.267 1036.08 152.419 1035.93 153.24C1035.74 154.296 1035.08 156.157 1033.32 157.779C1031.71 159.272 1030.16 159.644 1029.82 159.713C1029.53 159.771 1029.76 159.688 1030.89 159.728L1031.81 133.667C1028.64 133.555 1021.25 133.421 1015.61 138.643C1009.17 144.604 1009.63 152.78 1010.31 157.237L1036.09 153.289ZM1052.1 194.154C1047.68 190.049 1045.63 188.065 1043.57 183.761C1041.22 178.839 1038.7 170.385 1036.09 153.289L1010.31 157.237C1013.02 174.96 1015.98 186.519 1020.05 195.012C1024.4 204.123 1029.71 208.957 1034.38 213.279L1052.1 194.154ZM1053.96 195.887C1053.31 195.275 1052.68 194.691 1052.1 194.153L1034.38 213.28C1034.96 213.824 1035.53 214.349 1036.11 214.889L1053.96 195.887ZM1050.74 245.517C1056.44 229.102 1059.31 218.632 1058.02 204.228L1032.05 206.549C1032.82 215.162 1031.57 221.235 1026.1 236.957L1050.74 245.517ZM1051.46 250.029V241.237H1025.38V250.029H1051.46ZM1037.71 278C1043.41 270.567 1046.73 265.33 1050.67 254.49L1026.17 245.568C1023.28 253.489 1021.4 256.414 1017.02 262.123L1037.71 278ZM940.392 308.467C983.239 301.937 1008.5 297.265 1022.07 293.111C1025.54 292.048 1028.7 290.887 1031.38 289.537C1033.82 288.307 1037.17 286.288 1039.61 282.892C1042.66 278.634 1043.48 273.304 1041.68 268.31C1040.27 264.39 1037.62 261.752 1036.1 260.376L1018.64 279.746C1019.14 280.202 1017.93 279.325 1017.14 277.135C1015.97 273.871 1016.59 270.242 1018.42 267.693C1019.63 266.008 1020.72 265.708 1019.65 266.247C1018.81 266.668 1017.2 267.327 1014.43 268.176C1003.04 271.666 979.767 276.088 936.463 282.687L940.392 308.467ZM920.688 309.53L939.087 308.599L937.769 282.555L919.37 283.486L920.688 309.53ZM908.019 291.432C905.635 297.073 902.481 302.318 898.685 307.033L918.998 323.386C924.292 316.81 928.701 309.482 932.039 301.583L908.019 291.432ZM1028.4 328.609C1028.4 323.697 1025.92 320.283 1024.19 318.522C1022.5 316.798 1020.66 315.731 1019.42 315.104C1016.9 313.824 1013.97 312.931 1011.28 312.252C1005.7 310.842 997.985 309.592 988.695 308.446C969.955 306.134 942.977 304.032 909.559 302.191L908.124 328.229C941.367 330.06 967.648 332.124 985.502 334.327C994.509 335.438 1000.93 336.533 1004.9 337.536C1006.99 338.064 1007.69 338.395 1007.61 338.355C1007.6 338.347 1006.68 337.904 1005.6 336.806C1004.48 335.672 1002.32 332.889 1002.32 328.609H1028.4ZM527.856 363.124C662.604 363.124 784.681 360.718 873.147 356.821C917.342 354.874 953.343 352.547 978.4 349.937C990.857 348.64 1001 347.234 1008.2 345.684C1011.7 344.932 1015.17 344.007 1018.03 342.767C1019.41 342.17 1021.41 341.177 1023.28 339.556C1025.05 338.015 1028.4 334.367 1028.4 328.609H1002.32C1002.32 323.593 1005.24 320.682 1006.17 319.873C1007.2 318.984 1007.94 318.718 1007.65 318.843C1007.18 319.047 1005.71 319.545 1002.71 320.191C996.924 321.437 987.91 322.728 975.698 324C951.417 326.529 916.025 328.829 871.999 330.769C784.024 334.644 662.348 337.046 527.856 337.046V363.124ZM184.988 356.927C273.252 360.762 394.332 363.124 527.856 363.124V337.046C394.587 337.046 273.902 334.688 186.12 330.874L184.988 356.927ZM175.059 357.633C179.195 357.633 183.273 357.358 187.276 356.825L183.831 330.976C180.968 331.358 178.04 331.555 175.059 331.555V357.633ZM154.257 355.261C160.953 356.815 167.919 357.633 175.059 357.633V331.555C169.917 331.555 164.928 330.967 160.15 329.858L154.257 355.261ZM27.3132 328.609C27.3132 333.777 30.0378 337.27 31.7956 338.971C33.5464 340.666 35.4389 341.709 36.7111 342.323C39.325 343.587 42.4052 344.486 45.3194 345.186C51.3566 346.636 59.7538 347.932 69.9419 349.125C90.4727 351.527 120.02 353.701 156.533 355.581L157.874 329.538C121.533 327.666 92.6543 325.527 72.9729 323.224C63.0548 322.063 55.8993 320.908 51.4104 319.83C50.3233 319.569 49.4923 319.335 48.8823 319.139C48.244 318.934 48.0138 318.823 48.0584 318.844C48.0917 318.86 48.2797 318.952 48.5663 319.137C48.8406 319.314 49.3453 319.665 49.9321 320.234C51.0098 321.277 53.3907 324.108 53.3907 328.609H27.3132ZM114.439 304.152C90.5917 305.816 71.4318 307.654 58.1006 309.654C51.5254 310.641 45.8439 311.741 41.5879 313.038C39.5563 313.658 37.0643 314.55 34.8211 315.923C33.5026 316.729 27.3132 320.632 27.3132 328.609H53.3907C53.3907 332.133 51.8992 334.69 50.7719 336.07C49.7237 337.354 48.7159 337.993 48.4309 338.167C47.8766 338.506 47.9034 338.375 49.1913 337.983C51.5743 337.257 55.7345 336.379 61.9699 335.443C74.26 333.599 92.5972 331.817 116.254 330.167L114.439 304.152ZM95.5083 311.609C98.3874 316.61 101.723 321.312 105.457 325.657L125.236 308.662C122.558 305.545 120.168 302.177 118.108 298.598L95.5083 311.609ZM90.676 317.905L106.615 318.141L107.001 292.066L91.0619 291.83L90.676 317.905ZM793.279 302.929C792.059 301.147 790.926 299.303 789.884 297.403L767.017 309.938C768.473 312.595 770.057 315.171 771.759 317.658L793.279 302.929ZM754.551 317.935L779.109 316.693L777.792 290.648L753.233 291.891L754.551 317.935ZM271.625 320.58L753.963 317.952L753.821 291.874L271.482 294.503L271.625 320.58ZM241.925 320.143L271.361 320.579L271.746 294.504L242.311 294.069L241.925 320.143ZM249.993 318.827C251.119 317.236 252.195 315.608 253.22 313.943L231.016 300.269C230.282 301.46 229.511 302.626 228.705 303.766L249.993 318.827ZM527.856 294.095C419.782 294.095 319.875 295.643 238.927 298.265L239.771 324.329C320.388 321.717 420.009 320.173 527.856 320.173V294.095ZM782.871 297.259C708.624 295.252 621.294 294.095 527.856 294.095V320.173C621.092 320.173 708.184 321.327 782.166 323.327L782.871 297.259Z" fill="black" mask="url(#path-1-outside-1_209_7631)"/>
<path d="M38.494 299.111C48.0629 301.758 77.3977 304.051 90.869 304.867L271.553 307.541L753.892 304.912L938.428 295.576C1024.58 282.447 1035.49 277.387 1027.37 270.06C1032.41 263.49 1035 259.409 1038.42 250.028V241.236C1044 225.167 1046.06 216.896 1045.04 205.387C1034.87 195.835 1028.87 192.316 1023.2 155.262C1022.1 148.101 1024.96 146.472 1031.35 146.696V140.442C1023.7 124.622 1022.8 115.795 1032.94 100.197C985.599 98.0738 924.433 67.7886 873.231 52.1116C629.219 -22.6 416.835 15.396 261.178 130.154C169.114 130.154 100.293 155.67 77.0956 168.632C40.261 180.781 20.4921 195.009 15.0703 202.305C14.3454 220.298 19.4651 231.936 19.4651 239.695C19.4651 247.454 17.0487 253.835 15.8405 256.056C18.2418 257.386 23.6333 260.615 25.9893 262.9C28.3453 265.184 31.1543 268.746 32.4229 275.816C27.6657 277.191 18.1965 280.801 18.3777 284.246C18.6043 288.551 33.0572 294.942 38.494 299.111Z" fill="#E8A643" stroke="black" stroke-width="4.5307" stroke-linecap="round" stroke-linejoin="round"/>
<path d="M61.0128 239.717L62.5554 241.281L60.5591 250.969C37.5864 251.57 32.3085 248.582 29.3906 240.412L61.0128 239.717Z" fill="#9C9C9C"/>
<path d="M61.0128 239.717L62.5554 240.955L60.5591 248.629C37.5864 249.104 32.3085 246.738 29.3906 240.267L61.0128 239.717Z" fill="#343434"/>
<path fill-rule="evenodd" clip-rule="evenodd" d="M1044.81 205.645C1034.68 216.48 1004.24 216.805 935.303 213.982C905.582 164.869 831.006 152.908 787.738 187.387C758.606 210.601 739.87 194.181 796.709 153.18C593.205 158.411 481.545 164.15 285.374 177.827C292.532 216.202 279.121 226.894 251.031 199.71C211.387 158.073 146.779 158.616 105.006 197.037C72.3022 202.318 51.9971 206.189 23.4083 216.655C22.9874 215.997 22.5855 215.384 22.2011 214.798C19.5964 210.825 17.7889 208.068 16.2383 200.88C22.9949 193.263 42.5324 180.032 77.0972 168.632C100.294 155.67 169.116 130.154 261.18 130.154C416.837 15.396 629.221 -22.5999 873.232 52.1116C889.68 57.1475 907.156 63.6907 924.871 70.3236C962.304 84.3395 1000.81 98.7559 1032.94 100.197C1022.8 115.795 1023.7 124.622 1031.35 140.442V146.696C1024.96 146.472 1022.1 148.101 1023.2 155.262C1028.53 190.081 1034.15 195.288 1043.24 203.715C1043.74 204.181 1044.26 204.656 1044.78 205.147L1044.81 205.645Z" fill="#EDBF54"/>
<path d="M465.47 144.527C295.868 140.518 197.017 138.902 125.078 152.41C135.028 142.34 188.612 133.564 258.643 131.32C445.667 41.293 566.505 -35.6596 933.31 72.4883C970.212 88.5744 991.551 93.8666 1030.04 100.851C978.864 101.195 948.753 96.6458 891.809 77.6986L310.339 130.887C379.124 132.681 413.69 135.409 465.47 144.527Z" fill="#F7E577"/>
<ellipse cx="527.855" cy="328.608" rx="487.504" ry="21.4755" fill="#3A3B38"/>
<ellipse cx="512.544" cy="328.609" rx="427.427" ry="19.6633" fill="#151515"/>
<path d="M271.281 308.357C231.847 303.991 214.189 316.648 176.318 316.648C156.815 316.648 137.832 293.982 120.545 300.54C109.153 304.862 99.4772 305.683 90.8688 305.683C87.788 298.389 85.1602 282.794 85.1602 266.312C85.1602 217.474 126.936 178.248 175.774 178.248C224.612 178.248 271.281 209.315 271.281 308.357Z" fill="#1E1E1E" stroke="black" stroke-width="3.62456" stroke-linecap="round" stroke-linejoin="round"/>
<path d="M283.718 279.409C283.764 279.802 283.202 279.957 283.042 279.595C282.793 279.035 282.845 278.149 282.765 277.54C282.387 274.685 281.949 271.838 281.447 269.002C280.132 261.576 278.376 254.223 276.09 247.035C269.101 225.05 256.848 204.556 238.6 190.124C205.937 164.293 159.444 162.251 124.019 183.966C114.504 189.798 106.007 197.258 98.9845 205.933C81.3151 227.76 74.0847 256.141 77.5841 283.851C77.6313 284.225 77.068 284.329 76.9808 283.962C76.7865 283.145 76.7515 282.249 76.6571 281.415C76.4017 279.157 76.2123 276.895 76.0903 274.626C75.7278 267.882 76.0313 261.106 76.9556 254.417C79.733 234.318 88.6072 215.111 102.32 200.132C109.772 191.991 118.529 185.131 128.215 179.84C167.123 158.589 216.23 164.892 247.64 196.313C269.662 218.341 280.222 248.993 283.718 279.409Z" fill="black"/>
<path d="M298.42 122.236C286.829 130.063 265.889 130.496 261.223 130.21C357.591 56.9934 611.99 -63.8405 960.673 83.7245C945.404 84.9931 936.026 78.2424 884.24 62.0677C649.436 -11.2698 457.901 14.5407 298.42 122.236Z" fill="#747476"/>
<path fill-rule="evenodd" clip-rule="evenodd" d="M673.434 21.8349L668.043 13.7702L635.603 13L630.529 20.5663L673.434 21.8349ZM846.145 51.783L854.618 45.2588L817.556 35.3818L805.323 41.7248L846.145 51.783ZM489.62 30.4901C488.571 29.9396 487.692 29.4783 487.041 29.2198C454.776 36.1887 437.12 41.1066 406.485 51.828C406.263 57.9521 410.187 60.5826 423.838 58.5335C447.644 50.5802 491.478 37.9901 503.671 34.7531C504.621 34.6756 505.561 34.4864 506.478 34.1583C507.576 33.7655 506.438 34.0184 503.671 34.7531C498.541 35.1717 493.13 32.3319 489.62 30.4901Z" fill="#3A3A3A"/>
<path d="M18.3809 284.163C20.6916 289.554 41.8047 292.771 74.6976 291.774M15.8438 255.982C22.4586 259.643 54.4453 259.896 59.3385 259.787M59.3385 259.787L60.7283 250.953M59.3385 259.787C58.0246 267.278 54.3094 282.785 49.9599 284.888M60.7283 250.953L62.1823 241.709C62.3547 240.613 61.5163 239.621 60.4068 239.618C50.9256 239.593 34.1924 239.689 29.2546 240.26C29.4661 242.465 31.4928 246.503 35.9148 248.823C40.3367 251.143 54.1335 251.526 60.7283 250.953Z" stroke="black" stroke-width="1.81228" stroke-linecap="round" stroke-linejoin="round"/>
<path d="M39.0406 192.824C42.348 189.471 54.59 179.929 77.0985 168.584C95.2364 162.604 117.83 152.546 130.923 152.953C130.923 156.17 104.954 171.051 100.296 173.84C89.4214 180.351 78.2579 187.642 75.6487 189.244C70.4837 192.416 47.1052 201.296 41.9402 199.71C37.8082 198.442 38.2855 194.591 39.0406 192.824Z" fill="#696969" stroke="black" stroke-width="2.71842" stroke-linejoin="round"/>
<path d="M62.9609 177.328L63.6405 178.642C80.0551 175.585 95.4008 165.367 121.634 156.985V154.811C97.3296 160.342 84.4972 165.305 62.9609 177.328Z" fill="#C4C4C4"/>
<path d="M39.0406 192.824C42.348 189.471 54.59 179.929 77.0985 168.584C95.2364 162.604 117.83 152.546 130.923 152.953C130.923 156.17 104.954 171.051 100.296 173.84C89.4214 180.351 78.2579 187.642 75.6487 189.244C70.4837 192.416 47.1052 201.296 41.9402 199.71C37.8082 198.442 38.2855 194.591 39.0406 192.824Z" stroke="black" stroke-width="2.71842" stroke-linejoin="round"/>
<path d="M63.6857 178.914L54.9414 187.659C60.8251 191.611 65.9737 189.432 75.1115 185.564L75.1937 185.529C87.3812 171.937 69.0319 183.128 63.6857 178.914Z" fill="#373737"/>
<path d="M58.33 186.507L47.6033 189.108C45.9336 197.549 58.7941 193.684 74.1079 185.438C63.1755 189.43 59.8019 189.97 59.5979 187.61C59.54 186.941 58.9824 186.349 58.33 186.507Z" fill="#C4C4C4"/>
<path d="M47.7839 189.697C47.5422 197.85 53.9419 194.243 74.8322 185.937M121.77 156.94C98.9355 163.555 76.6898 177.419 64.0038 179.141" stroke="#E4E4E4" stroke-width="1.9029" stroke-linecap="round"/>
<path d="M128.338 191.691C122.49 189.635 118.216 188.331 112.805 187.089C107.373 185.842 101.786 185.376 96.2173 185.601C91.1374 185.806 86.8501 186.183 80.9922 186.979" stroke="black" stroke-width="1.35921"/>
<path d="M98.9413 197.674C99.2556 197.63 99.3819 198.08 99.0845 198.198C98.3957 198.469 97.4946 198.498 96.7646 198.636C94.8588 198.996 92.9546 199.364 91.0517 199.739C85.3499 200.861 79.6616 202.052 73.99 203.316C58.5269 206.762 43.2735 210.787 28.0507 215.147C27.7187 215.242 27.5125 214.776 27.8155 214.605C28.4586 214.242 29.3636 214.084 30.0732 213.849C31.9229 213.235 33.7739 212.625 35.6273 212.022C41.2009 210.208 46.7971 208.459 52.44 206.868C67.6621 202.577 83.2821 199.857 98.9413 197.674Z" fill="black"/>
<path fill-rule="evenodd" clip-rule="evenodd" d="M174.916 344.601C218.38 344.601 253.614 309.367 253.614 265.904C253.614 222.44 218.38 187.206 174.916 187.206C131.453 187.206 96.2188 222.44 96.2188 265.904C96.2188 309.367 131.453 344.601 174.916 344.601ZM174.916 322.6C206.229 322.6 231.612 297.216 231.612 265.904C231.612 234.591 206.229 209.207 174.916 209.207C143.604 209.207 118.22 234.591 118.22 265.904C118.22 297.216 143.604 322.6 174.916 322.6Z" fill="#3F3F3F"/>
<path fill-rule="evenodd" clip-rule="evenodd" d="M230.252 268.633C228.386 298.111 203.886 321.442 173.937 321.442C156.504 321.442 140.917 313.537 130.566 301.115C139.987 316.714 157.102 327.143 176.654 327.143C206.368 327.143 230.455 303.055 230.455 273.342C230.455 271.755 230.387 270.185 230.252 268.633Z" fill="#707070"/>
<mask id="mask0_209_7631" style="mask-type:alpha" maskUnits="userSpaceOnUse" x="96" y="187" width="158" height="158">
<path fill-rule="evenodd" clip-rule="evenodd" d="M174.916 344.601C218.38 344.601 253.614 309.367 253.614 265.904C253.614 222.44 218.38 187.206 174.916 187.206C131.453 187.206 96.2188 222.44 96.2188 265.904C96.2188 309.367 131.453 344.601 174.916 344.601ZM174.916 322.6C206.229 322.6 231.612 297.216 231.612 265.904C231.612 234.591 206.229 209.207 174.916 209.207C143.604 209.207 118.22 234.591 118.22 265.904C118.22 297.216 143.604 322.6 174.916 322.6Z" fill="#3F3F3F"/>
</mask>
<g mask="url(#mask0_209_7631)">
<ellipse cx="174.962" cy="213.26" rx="80.88" ry="47.6105" fill="#303030"/>
</g>
<circle cx="174.915" cy="265.904" r="35.6998" fill="#A7A7A7" stroke="black" stroke-width="2.26535"/>
<circle cx="174.916" cy="265.903" r="7.70498" stroke="black" stroke-width="1.35921"/>
<path d="M228.442 265.331C214.636 260.708 195.775 259.83 181.454 261.96" stroke="black" stroke-width="2.26535"/>
<path d="M225.376 283.42C223.183 282.869 219.489 279.714 218.875 278.977C219.324 275.459 222.381 269.736 228.512 265.543" stroke="black" stroke-width="2.26535"/>
<path d="M218.85 278.897C206.748 285.084 202.064 276.649 182.131 273.545C188.25 270.399 204.537 265.946 220.735 273.307" stroke="black" stroke-width="2.26535" stroke-linejoin="round"/>
<path d="M192.003 316.642C192.133 302.082 187.14 283.873 180.689 270.912" stroke="black" stroke-width="2.26535"/>
<path d="M173.853 319.315C173.7 317.059 175.559 312.57 176.07 311.758C179.554 311.099 185.942 312.238 191.824 316.772" stroke="black" stroke-width="2.26535"/>
<path d="M176.136 311.707C166.513 302.109 173.087 295.048 169.879 275.131C174.762 279.978 184.03 294.092 182.035 311.772" stroke="black" stroke-width="2.26535" stroke-linejoin="round"/>
<path d="M131.945 297.841C145.832 293.465 161.607 283.09 171.94 272.949" stroke="black" stroke-width="2.26535"/>
<path d="M123.794 281.404C125.893 280.561 130.736 280.942 131.666 281.177C133.37 284.287 134.261 290.715 131.766 297.71" stroke="black" stroke-width="2.26535"/>
<path d="M131.735 281.225C137.89 269.107 146.637 273.177 164.587 263.972C161.486 270.114 150.928 283.29 133.496 286.856" stroke="black" stroke-width="2.26535" stroke-linejoin="round"/>
<path d="M131.267 234.911C139.719 246.766 154.462 258.563 167.3 265.257" stroke="black" stroke-width="2.26535"/>
<path d="M144.381 222.079C145.831 223.815 146.965 228.538 147.029 229.496C144.598 232.077 138.76 234.91 131.336 234.699" stroke="black" stroke-width="2.26535"/>
<path d="M147.003 229.576C160.43 231.685 159.262 241.261 173.563 255.489C166.764 254.438 150.97 248.467 142.192 232.991" stroke="black" stroke-width="2.26535" stroke-linejoin="round"/>
<path d="M190.906 214.819C182.243 226.522 175.579 244.188 173.18 258.466" stroke="black" stroke-width="2.26535"/>
<path d="M207.162 223.326C205.96 225.241 201.818 227.78 200.927 228.136C197.72 226.622 193.222 221.945 191.129 214.819" stroke="black" stroke-width="2.26535"/>
<path d="M200.842 228.138C202.986 241.559 193.517 243.407 184.406 261.405C183.304 254.614 184.102 237.748 196.108 224.617" stroke="black" stroke-width="2.26535" stroke-linejoin="round"/>
<path fill-rule="evenodd" clip-rule="evenodd" d="M227.806 264.42C227.355 248.049 219.468 233.536 207.401 224.137C206.65 225.086 205.428 226.07 204.312 226.86C203.271 227.598 202.226 228.232 201.581 228.564C202.029 231.755 201.821 234.337 201.097 236.665C200.335 239.112 199.017 241.235 197.381 243.452C196.633 244.465 195.818 245.502 194.951 246.604C192.149 250.163 188.81 254.406 185.477 260.782C198.93 259.384 215.276 260.419 227.806 264.42Z" fill="#5A5A5A"/>
<path fill-rule="evenodd" clip-rule="evenodd" d="M189.849 215.144C174.14 210.514 157.9 213.53 145.232 222.101C145.902 223.109 146.461 224.575 146.868 225.881C147.247 227.099 147.528 228.289 147.644 229.005C150.818 229.565 153.209 230.561 155.199 231.969C157.291 233.449 158.902 235.359 160.505 237.6C161.238 238.624 161.972 239.72 162.752 240.885C165.272 244.649 168.275 249.136 173.308 254.277C176.137 241.05 182.172 225.824 189.849 215.144Z" fill="#5A5A5A"/>
<path fill-rule="evenodd" clip-rule="evenodd" d="M131.257 236.015C121.999 249.525 119.849 265.902 124.087 280.598C125.253 280.272 126.819 280.194 128.187 280.211C129.463 280.226 130.681 280.327 131.398 280.438C132.911 277.593 134.597 275.626 136.551 274.168C138.606 272.636 140.92 271.694 143.546 270.862C144.747 270.481 146.016 270.122 147.365 269.741C151.724 268.507 156.919 267.037 163.363 263.839C151.658 257.062 139.042 246.616 131.257 236.015Z" fill="#5A5A5A"/>
<path fill-rule="evenodd" clip-rule="evenodd" d="M132.999 298.191C142.986 311.171 157.898 318.276 173.184 318.787C173.235 317.578 173.644 316.064 174.083 314.768C174.492 313.56 174.964 312.432 175.291 311.784C173.053 309.466 171.704 307.255 170.921 304.946C170.099 302.519 169.918 300.027 169.938 297.272C169.947 296.012 169.998 294.694 170.052 293.293C170.226 288.767 170.433 283.372 169.383 276.254C159.32 285.293 145.487 294.063 132.999 298.191Z" fill="#5A5A5A"/>
<path fill-rule="evenodd" clip-rule="evenodd" d="M192.671 315.747C208.102 310.259 219.467 298.273 224.677 283.893C223.543 283.471 222.229 282.614 221.133 281.796C220.109 281.034 219.183 280.236 218.668 279.725C215.771 281.137 213.252 281.737 210.814 281.768C208.251 281.8 205.825 281.202 203.211 280.332C202.016 279.934 200.779 279.478 199.463 278.994C195.212 277.43 190.145 275.565 183.051 274.365C188.538 286.728 192.604 302.594 192.671 315.747Z" fill="#5A5A5A"/>
<path fill-rule="evenodd" clip-rule="evenodd" d="M189.828 215.113C174.119 210.483 157.879 213.499 145.211 222.071C145.393 222.345 145.568 222.654 145.733 222.983C157.926 220.846 176.053 226.101 180.498 231.938C183.168 225.798 186.327 219.983 189.828 215.113Z" fill="#666666"/>
<path fill-rule="evenodd" clip-rule="evenodd" d="M131.159 235.943C121.901 249.452 119.751 265.83 123.988 280.526C124.306 280.437 124.653 280.367 125.018 280.312C126.752 268.055 137.352 252.439 144.278 250.015C139.263 245.579 134.709 240.777 131.159 235.943Z" fill="#666666"/>
<path fill-rule="evenodd" clip-rule="evenodd" d="M132.841 298.177C142.828 311.156 157.739 318.262 173.026 318.773C173.04 318.444 173.08 318.092 173.14 317.728C162.019 312.291 150.444 297.384 150.278 290.049C144.509 293.447 138.535 296.294 132.841 298.177Z" fill="#666666"/>
<path fill-rule="evenodd" clip-rule="evenodd" d="M192.546 315.81C207.976 310.322 219.342 298.336 224.552 283.956C224.243 283.841 223.921 283.694 223.593 283.524C214.986 292.42 197.232 298.823 190.204 296.714C191.653 303.25 192.515 309.812 192.546 315.81Z" fill="#666666"/>
<path fill-rule="evenodd" clip-rule="evenodd" d="M227.767 264.473C227.317 248.102 219.43 233.589 207.363 224.19C207.159 224.448 206.919 224.709 206.656 224.968C212.457 235.904 213.061 254.768 208.883 260.8C215.547 261.441 222.054 262.649 227.767 264.473Z" fill="#666666"/>
<path fill-rule="evenodd" clip-rule="evenodd" d="M183.667 260.986C182.674 253.792 183.718 237.357 195.408 224.393C193.623 222.245 191.959 219.44 190.822 216.069C182.733 227.389 176.471 243.912 174.012 257.579C174.309 257.547 174.611 257.53 174.916 257.53C177.808 257.53 180.358 258.996 181.862 261.226C182.456 261.141 183.058 261.061 183.667 260.986ZM200.936 227.395C198.131 225.936 194.274 221.94 192.165 215.868C197.292 217.635 202.061 220.168 206.338 223.329C205.728 224.092 204.658 224.978 203.541 225.77C202.472 226.527 201.46 227.128 200.936 227.395Z" fill="#343434"/>
<path fill-rule="evenodd" clip-rule="evenodd" d="M183.669 260.987C182.676 253.792 183.72 237.357 195.41 224.393C193.625 222.245 191.961 219.44 190.824 216.069C186.307 222.391 176.967 243.189 183.669 260.987ZM200.938 227.395C198.133 225.936 194.276 221.94 192.167 215.868C197.294 217.635 202.063 220.168 206.34 223.329C205.73 224.092 204.66 224.978 203.543 225.77C202.474 226.527 201.462 227.128 200.938 227.395Z" fill="#232323"/>
<path fill-rule="evenodd" clip-rule="evenodd" d="M172.945 256.061C165.795 254.783 150.487 248.711 141.77 233.587C139.176 234.621 135.994 235.337 132.437 235.376C140.703 246.567 154.482 257.629 166.72 264.191C166.781 263.899 166.859 263.606 166.953 263.316C167.847 260.565 170.029 258.594 172.614 257.852C172.717 257.26 172.827 256.663 172.945 256.061ZM146.333 229.257C144.079 231.474 139.087 233.908 132.661 234.037C135.925 229.707 139.808 225.954 144.136 222.863C144.673 223.679 145.185 224.97 145.593 226.278C145.982 227.528 146.241 228.676 146.333 229.257Z" fill="#343434"/>
<path fill-rule="evenodd" clip-rule="evenodd" d="M172.943 256.061C165.794 254.782 150.486 248.711 141.769 233.587C139.174 234.621 135.993 235.336 132.435 235.376C137.052 241.626 153.946 256.935 172.943 256.061ZM146.332 229.257C144.078 231.473 139.086 233.907 132.659 234.036C135.924 229.707 139.806 225.953 144.135 222.863C144.672 223.679 145.184 224.97 145.592 226.277C145.981 227.528 146.24 228.676 146.332 229.257Z" fill="#232323"/>
<path fill-rule="evenodd" clip-rule="evenodd" d="M164.947 264.737C161.522 271.142 151.017 283.824 133.939 287.441C134.121 290.228 133.818 293.475 132.757 296.871C145.954 292.467 160.733 282.78 170.755 273.17C170.496 273.021 170.242 272.857 169.995 272.677C167.655 270.977 166.454 268.293 166.548 265.605C166.017 265.324 165.483 265.035 164.947 264.737ZM131.231 281.764C132.643 284.592 133.415 290.092 131.552 296.244C128.443 291.801 126.073 286.949 124.471 281.877C125.413 281.618 126.799 281.53 128.169 281.547C129.479 281.563 130.65 281.671 131.231 281.764Z" fill="#343434"/>
<path fill-rule="evenodd" clip-rule="evenodd" d="M164.947 264.738C161.522 271.142 151.017 283.825 133.939 287.441C134.121 290.228 133.819 293.475 132.757 296.871C140.127 294.412 159.908 283.075 164.947 264.738ZM131.232 281.764C132.643 284.592 133.415 290.092 131.552 296.244C128.443 291.801 126.073 286.949 124.472 281.877C125.413 281.618 126.8 281.53 128.169 281.547C129.479 281.563 130.651 281.671 131.232 281.764Z" fill="#232323"/>
<path fill-rule="evenodd" clip-rule="evenodd" d="M170.727 275.025C175.76 280.262 184.576 294.172 182.738 311.531C185.445 312.22 188.439 313.511 191.341 315.57C191.231 301.657 186.585 284.609 180.542 272.107C180.32 272.308 180.086 272.498 179.838 272.678C177.499 274.378 174.575 274.69 172.047 273.771C171.616 274.189 171.176 274.607 170.727 275.025ZM176.502 312.352C179.628 311.884 185.097 312.849 190.372 316.522C185.186 318.106 179.839 318.86 174.521 318.816C174.566 317.841 174.91 316.495 175.349 315.198C175.769 313.957 176.234 312.876 176.502 312.352Z" fill="#343434"/>
<path fill-rule="evenodd" clip-rule="evenodd" d="M170.728 275.025C175.76 280.262 184.576 294.172 182.738 311.531C185.445 312.219 188.439 313.511 191.341 315.569C191.28 307.8 186.611 285.484 170.728 275.025ZM176.502 312.352C179.628 311.884 185.097 312.849 190.372 316.522C185.187 318.105 179.839 318.86 174.521 318.816C174.566 317.841 174.91 316.495 175.349 315.197C175.769 313.957 176.235 312.876 176.502 312.352Z" fill="#232323"/>
<path fill-rule="evenodd" clip-rule="evenodd" d="M182.296 272.706C188.832 269.538 204.785 265.452 220.727 272.565C222.218 270.203 224.371 267.754 227.226 265.631C213.961 261.436 196.311 260.586 182.554 262.47C182.676 262.743 182.785 263.025 182.879 263.316C183.773 266.066 183.166 268.944 181.511 271.063C181.775 271.602 182.037 272.15 182.296 272.706ZM219.58 278.749C220.101 275.631 222.709 270.728 227.832 266.846C227.736 272.268 226.801 277.586 225.116 282.631C224.202 282.287 223.029 281.543 221.931 280.725C220.88 279.942 219.996 279.165 219.58 278.749Z" fill="#343434"/>
<path fill-rule="evenodd" clip-rule="evenodd" d="M182.299 272.706C188.834 269.539 204.788 265.453 220.729 272.565C222.221 270.203 224.374 267.754 227.229 265.631C219.821 263.288 197.154 260.833 182.299 272.706ZM219.583 278.749C220.104 275.632 222.712 270.728 227.835 266.846C227.739 272.268 226.804 277.587 225.119 282.631C224.205 282.287 223.031 281.543 221.933 280.725C220.883 279.942 219.999 279.166 219.583 278.749Z" fill="#232323"/>
<ellipse cx="174.918" cy="265.904" rx="53.5786" ry="53.5786" stroke="black" stroke-width="2.26535"/>
<circle cx="174.917" cy="265.904" r="56.429" stroke="black" stroke-width="2.26535"/>
<circle cx="174.918" cy="265.903" r="55.0038" stroke="#A6A6A6" stroke-width="1.54044"/>
<mask id="path-67-outside-2_209_7631" maskUnits="userSpaceOnUse" x="170.129" y="261.563" width="10" height="10" fill="black">
<rect fill="white" x="170.129" y="261.563" width="10" height="10"/>
<path fill-rule="evenodd" clip-rule="evenodd" d="M178.611 263.759C177.327 263.199 176.073 263.021 174.978 263.03H174.978C173.882 263.021 172.628 263.199 171.344 263.759C171.191 263.482 171.129 263.313 171.129 263.313C172.532 262.758 173.846 262.568 174.978 262.563C176.109 262.568 177.423 262.758 178.826 263.313C178.826 263.313 178.782 263.45 178.611 263.759ZM176.055 264.172L174.978 270.228L173.892 264.171C172.873 264.171 172.549 264.284 172.502 264.743C172.502 264.743 171.814 264.487 171.467 263.965C172.822 263.337 174.183 263.309 174.183 263.309L174.977 264.276L175.771 263.309C175.771 263.309 177.132 263.337 178.488 263.965C178.14 264.487 177.452 264.744 177.452 264.744C177.405 264.284 177.081 264.172 176.055 264.172Z"/>
</mask>
<path fill-rule="evenodd" clip-rule="evenodd" d="M178.611 263.759C177.327 263.199 176.073 263.021 174.978 263.03H174.978C173.882 263.021 172.628 263.199 171.344 263.759C171.191 263.482 171.129 263.313 171.129 263.313C172.532 262.758 173.846 262.568 174.978 262.563C176.109 262.568 177.423 262.758 178.826 263.313C178.826 263.313 178.782 263.45 178.611 263.759ZM176.055 264.172L174.978 270.228L173.892 264.171C172.873 264.171 172.549 264.284 172.502 264.743C172.502 264.743 171.814 264.487 171.467 263.965C172.822 263.337 174.183 263.309 174.183 263.309L174.977 264.276L175.771 263.309C175.771 263.309 177.132 263.337 178.488 263.965C178.14 264.487 177.452 264.744 177.452 264.744C177.405 264.284 177.081 264.172 176.055 264.172Z" fill="#EBEBEB"/>
<path d="M174.978 263.03V263.936L174.985 263.936L174.978 263.03ZM178.611 263.759L178.249 264.589C178.677 264.776 179.176 264.607 179.403 264.199L178.611 263.759ZM174.978 263.03L174.971 263.936H174.978V263.03ZM171.344 263.759L170.551 264.196C170.777 264.606 171.278 264.776 171.707 264.589L171.344 263.759ZM171.129 263.313L170.796 262.471C170.337 262.652 170.108 263.167 170.28 263.63L171.129 263.313ZM174.978 262.563L174.981 261.657L174.974 261.657L174.978 262.563ZM178.826 263.313L179.689 263.592C179.836 263.137 179.604 262.647 179.16 262.471L178.826 263.313ZM174.978 270.228L174.086 270.388C174.163 270.82 174.539 271.134 174.978 271.134C175.417 271.134 175.793 270.819 175.87 270.387L174.978 270.228ZM176.055 264.172V263.266C175.615 263.266 175.239 263.581 175.163 264.013L176.055 264.172ZM173.892 264.171L174.784 264.011C174.707 263.579 174.331 263.264 173.892 263.265L173.892 264.171ZM172.502 264.743L172.186 265.593C172.449 265.691 172.742 265.661 172.981 265.513C173.219 265.365 173.375 265.115 173.404 264.836L172.502 264.743ZM171.467 263.965L171.086 263.143C170.846 263.254 170.666 263.465 170.594 263.719C170.523 263.974 170.566 264.247 170.712 264.467L171.467 263.965ZM174.183 263.309L174.884 262.734C174.707 262.519 174.442 262.397 174.164 262.403L174.183 263.309ZM174.977 264.276L174.277 264.851C174.449 265.06 174.706 265.182 174.977 265.182C175.248 265.182 175.505 265.06 175.677 264.851L174.977 264.276ZM175.771 263.309L175.789 262.403C175.512 262.397 175.247 262.519 175.07 262.734L175.771 263.309ZM178.488 263.965L179.242 264.468C179.388 264.248 179.431 263.974 179.36 263.72C179.288 263.465 179.109 263.255 178.869 263.143L178.488 263.965ZM177.452 264.744L176.55 264.835C176.579 265.115 176.735 265.365 176.973 265.513C177.212 265.661 177.505 265.691 177.768 265.593L177.452 264.744ZM174.985 263.936C175.977 263.928 177.101 264.089 178.249 264.589L178.973 262.928C177.553 262.309 176.17 262.114 174.971 262.124L174.985 263.936ZM174.978 263.936H174.978V262.124H174.978V263.936ZM171.707 264.589C172.854 264.089 173.978 263.928 174.971 263.936L174.984 262.124C173.785 262.114 172.402 262.309 170.982 262.928L171.707 264.589ZM171.129 263.313C170.28 263.63 170.28 263.63 170.28 263.63C170.28 263.63 170.28 263.63 170.28 263.63C170.28 263.63 170.28 263.63 170.28 263.63C170.28 263.631 170.28 263.631 170.28 263.631C170.281 263.632 170.281 263.633 170.281 263.634C170.282 263.635 170.282 263.637 170.283 263.638C170.284 263.642 170.286 263.646 170.288 263.651C170.292 263.661 170.297 263.674 170.303 263.688C170.315 263.718 170.332 263.758 170.354 263.806C170.398 263.903 170.462 264.036 170.551 264.196L172.138 263.321C172.074 263.204 172.03 263.114 172.005 263.058C171.992 263.03 171.983 263.01 171.979 263C171.977 262.994 171.976 262.991 171.976 262.991C171.976 262.991 171.976 262.991 171.976 262.992C171.976 262.993 171.977 262.993 171.977 262.994C171.977 262.995 171.977 262.995 171.977 262.996C171.978 262.996 171.978 262.996 171.978 262.996C171.978 262.997 171.978 262.997 171.978 262.997C171.978 262.997 171.978 262.997 171.978 262.997C171.978 262.997 171.978 262.997 171.129 263.313ZM174.974 261.657C173.742 261.663 172.315 261.87 170.796 262.471L171.462 264.156C172.749 263.647 173.95 263.474 174.981 263.47L174.974 261.657ZM179.16 262.471C177.64 261.87 176.213 261.663 174.981 261.657L174.974 263.47C176.006 263.474 177.206 263.647 178.493 264.156L179.16 262.471ZM179.403 264.199C179.5 264.024 179.566 263.889 179.61 263.79C179.632 263.74 179.649 263.699 179.662 263.666C179.668 263.65 179.674 263.636 179.678 263.623C179.68 263.617 179.682 263.612 179.684 263.606C179.685 263.604 179.686 263.601 179.686 263.599C179.687 263.598 179.687 263.596 179.688 263.595C179.688 263.595 179.688 263.594 179.688 263.594C179.688 263.593 179.688 263.593 179.688 263.593C179.688 263.593 179.688 263.593 179.689 263.592C179.689 263.592 179.689 263.592 178.826 263.313C177.964 263.035 177.964 263.035 177.964 263.034C177.964 263.034 177.964 263.034 177.964 263.034C177.965 263.034 177.965 263.033 177.965 263.033C177.965 263.033 177.965 263.032 177.965 263.032C177.966 263.031 177.966 263.03 177.966 263.029C177.967 263.027 177.967 263.025 177.968 263.024C177.969 263.021 177.97 263.018 177.97 263.016C177.972 263.013 177.972 263.011 177.972 263.013C177.971 263.015 177.966 263.028 177.956 263.051C177.935 263.097 177.893 263.185 177.819 263.319L179.403 264.199ZM175.87 270.387L176.947 264.33L175.163 264.013L174.086 270.069L175.87 270.387ZM173 264.331L174.086 270.388L175.87 270.068L174.784 264.011L173 264.331ZM173.404 264.836C173.406 264.818 173.402 264.89 173.337 264.981C173.268 265.08 173.187 265.119 173.169 265.126C173.165 265.128 173.209 265.111 173.344 265.097C173.474 265.084 173.65 265.077 173.893 265.077L173.892 263.265C173.401 263.265 172.895 263.284 172.496 263.444C172.264 263.536 172.03 263.69 171.855 263.939C171.685 264.181 171.623 264.439 171.601 264.651L173.404 264.836ZM170.712 264.467C170.992 264.888 171.379 265.166 171.648 265.327C171.79 265.412 171.917 265.475 172.01 265.518C172.058 265.54 172.097 265.557 172.127 265.569C172.142 265.575 172.154 265.58 172.164 265.584C172.169 265.586 172.174 265.588 172.177 265.589C172.179 265.59 172.181 265.591 172.182 265.591C172.183 265.591 172.183 265.592 172.184 265.592C172.184 265.592 172.185 265.592 172.185 265.592C172.185 265.592 172.185 265.592 172.185 265.592C172.186 265.593 172.186 265.593 172.502 264.743C172.819 263.894 172.819 263.894 172.819 263.895C172.819 263.895 172.819 263.895 172.82 263.895C172.82 263.895 172.82 263.895 172.82 263.895C172.821 263.895 172.821 263.895 172.822 263.895C172.822 263.896 172.823 263.896 172.824 263.896C172.825 263.897 172.825 263.897 172.825 263.897C172.824 263.897 172.822 263.896 172.817 263.894C172.808 263.89 172.791 263.883 172.768 263.872C172.722 263.851 172.655 263.817 172.581 263.773C172.418 263.676 172.288 263.564 172.221 263.463L170.712 264.467ZM174.183 263.309C174.164 262.403 174.164 262.403 174.164 262.403C174.164 262.403 174.164 262.403 174.164 262.403C174.163 262.403 174.163 262.403 174.163 262.403C174.162 262.403 174.161 262.403 174.16 262.403C174.159 262.403 174.157 262.403 174.154 262.403C174.149 262.403 174.143 262.404 174.136 262.404C174.121 262.404 174.101 262.405 174.077 262.406C174.027 262.409 173.959 262.413 173.874 262.42C173.704 262.434 173.466 262.461 173.183 262.508C172.622 262.602 171.859 262.785 171.086 263.143L171.848 264.787C172.43 264.518 173.025 264.372 173.483 264.295C173.71 264.257 173.897 264.237 174.025 264.226C174.089 264.221 174.137 264.218 174.168 264.216C174.183 264.216 174.193 264.215 174.199 264.215C174.202 264.215 174.204 264.215 174.205 264.215C174.205 264.215 174.205 264.215 174.204 264.215C174.204 264.215 174.204 264.215 174.203 264.215C174.203 264.215 174.203 264.215 174.203 264.215C174.203 264.215 174.203 264.215 174.203 264.215C174.202 264.215 174.202 264.215 174.183 263.309ZM175.677 263.701L174.884 262.734L173.483 263.884L174.277 264.851L175.677 263.701ZM175.07 262.734L174.277 263.701L175.677 264.851L176.471 263.884L175.07 262.734ZM178.869 263.143C178.095 262.785 177.332 262.602 176.771 262.508C176.488 262.461 176.25 262.435 176.08 262.42C175.995 262.413 175.926 262.409 175.877 262.407C175.853 262.405 175.833 262.405 175.818 262.404C175.811 262.404 175.805 262.404 175.8 262.403C175.797 262.403 175.795 262.403 175.794 262.403C175.793 262.403 175.792 262.403 175.791 262.403C175.791 262.403 175.791 262.403 175.79 262.403C175.79 262.403 175.79 262.403 175.79 262.403C175.79 262.403 175.789 262.403 175.771 263.309C175.752 264.215 175.752 264.215 175.751 264.215C175.751 264.215 175.751 264.215 175.751 264.215C175.751 264.215 175.751 264.215 175.75 264.215C175.75 264.215 175.75 264.215 175.75 264.215C175.749 264.215 175.749 264.215 175.749 264.215C175.75 264.215 175.752 264.215 175.755 264.215C175.76 264.215 175.771 264.216 175.786 264.217C175.817 264.218 175.865 264.221 175.929 264.226C176.057 264.237 176.244 264.257 176.471 264.295C176.929 264.372 177.524 264.518 178.107 264.788L178.869 263.143ZM177.452 264.744C177.768 265.593 177.768 265.593 177.769 265.593C177.769 265.592 177.769 265.592 177.769 265.592C177.769 265.592 177.77 265.592 177.77 265.592C177.771 265.592 177.771 265.591 177.772 265.591C177.774 265.591 177.775 265.59 177.777 265.589C177.781 265.588 177.785 265.586 177.79 265.584C177.8 265.581 177.812 265.576 177.827 265.569C177.857 265.557 177.897 265.54 177.944 265.518C178.037 265.475 178.164 265.412 178.306 265.327C178.574 265.166 178.962 264.888 179.242 264.468L177.733 263.463C177.666 263.565 177.535 263.676 177.373 263.773C177.299 263.818 177.232 263.851 177.186 263.872C177.163 263.883 177.146 263.89 177.137 263.894C177.132 263.896 177.129 263.897 177.129 263.897C177.129 263.897 177.129 263.897 177.13 263.896C177.131 263.896 177.131 263.896 177.132 263.896C177.133 263.895 177.133 263.895 177.134 263.895C177.134 263.895 177.134 263.895 177.134 263.895C177.134 263.895 177.135 263.895 177.135 263.895C177.135 263.895 177.135 263.895 177.452 264.744ZM176.055 265.078C176.299 265.078 176.477 265.085 176.608 265.098C176.745 265.112 176.789 265.129 176.786 265.127C176.769 265.121 176.687 265.082 176.617 264.982C176.552 264.89 176.548 264.818 176.55 264.835L178.353 264.652C178.332 264.439 178.269 264.181 178.099 263.938C177.923 263.689 177.688 263.536 177.456 263.443C177.056 263.284 176.549 263.266 176.055 263.266V265.078Z" fill="black" mask="url(#path-67-outside-2_209_7631)"/>
<path d="M201.191 192.677C199.819 192.981 198.055 193.875 197.344 194.284" stroke="black" stroke-width="2.26535" stroke-linecap="round"/>
<path d="M212.321 197.689C210.919 197.773 209.036 198.381 208.271 198.674" stroke="black" stroke-width="2.26535" stroke-linecap="round"/>
<path d="M222.531 204.38C221.132 204.245 219.178 204.55 218.376 204.719" stroke="black" stroke-width="2.26535" stroke-linecap="round"/>
<path d="M231.572 212.587C230.211 212.234 228.234 212.23 227.415 212.272" stroke="black" stroke-width="2.26535" stroke-linecap="round"/>
<path d="M239.214 222.106C237.926 221.545 235.973 221.231 235.158 221.145" stroke="black" stroke-width="2.26535" stroke-linecap="round"/>
<path d="M245.272 232.704C244.087 231.948 242.207 231.333 241.415 231.12" stroke="black" stroke-width="2.26535" stroke-linecap="round"/>
<path d="M249.602 244.119C248.55 243.187 246.79 242.285 246.041 241.951" stroke="black" stroke-width="2.26535" stroke-linecap="round"/>
<path d="M252.088 256.07C251.195 254.985 249.598 253.82 248.91 253.372" stroke="black" stroke-width="2.26535" stroke-linecap="round"/>
<path d="M252.676 268.265C251.963 267.053 250.568 265.652 249.959 265.103" stroke="black" stroke-width="2.26535" stroke-linecap="round"/>
<path d="M251.349 280.401C250.835 279.093 249.676 277.49 249.16 276.852" stroke="black" stroke-width="2.26535" stroke-linecap="round"/>
<path d="M248.14 292.179C247.837 290.807 246.943 289.043 246.533 288.332" stroke="black" stroke-width="2.26535" stroke-linecap="round"/>
<path d="M243.131 303.311C243.046 301.908 242.439 300.026 242.146 299.26" stroke="black" stroke-width="2.26535" stroke-linecap="round"/>
<path d="M236.438 313.521C236.574 312.122 236.269 310.168 236.099 309.366" stroke="black" stroke-width="2.26535" stroke-linecap="round"/>
<path d="M228.233 322.559C228.585 321.199 228.59 319.221 228.548 318.402" stroke="black" stroke-width="2.26535" stroke-linecap="round"/>
<path d="M218.711 330.202C219.272 328.914 219.586 326.961 219.673 326.146" stroke="black" stroke-width="2.26535" stroke-linecap="round"/>
<path d="M208.116 336.263C208.872 335.078 209.487 333.198 209.7 332.406" stroke="black" stroke-width="2.26535" stroke-linecap="round"/>
<path d="M196.7 340.59C197.632 339.538 198.533 337.778 198.868 337.029" stroke="black" stroke-width="2.26535" stroke-linecap="round"/>
<path d="M184.748 343.079C185.833 342.185 186.999 340.588 187.446 339.901" stroke="black" stroke-width="2.26535" stroke-linecap="round"/>
<path d="M172.553 343.666C173.764 342.953 175.166 341.558 175.715 340.949" stroke="black" stroke-width="2.26535" stroke-linecap="round"/>
<path d="M160.42 342.34C161.728 341.826 163.33 340.667 163.968 340.152" stroke="black" stroke-width="2.26535" stroke-linecap="round"/>
<path d="M148.641 339.131C150.013 338.828 151.777 337.934 152.488 337.525" stroke="black" stroke-width="2.26535" stroke-linecap="round"/>
<path d="M137.507 334.119C138.91 334.034 140.792 333.427 141.558 333.134" stroke="black" stroke-width="2.26535" stroke-linecap="round"/>
<path d="M127.297 327.427C128.696 327.563 130.65 327.258 131.452 327.088" stroke="black" stroke-width="2.26535" stroke-linecap="round"/>
<path d="M118.26 319.221C119.621 319.574 121.598 319.578 122.417 319.536" stroke="black" stroke-width="2.26535" stroke-linecap="round"/>
<path d="M110.618 309.702C111.906 310.263 113.859 310.576 114.674 310.663" stroke="black" stroke-width="2.26535" stroke-linecap="round"/>
<path d="M104.557 299.104C105.742 299.86 107.621 300.475 108.413 300.688" stroke="black" stroke-width="2.26535" stroke-linecap="round"/>
<path d="M100.23 287.689C101.282 288.621 103.042 289.522 103.791 289.857" stroke="black" stroke-width="2.26535" stroke-linecap="round"/>
<path d="M97.7397 275.737C98.633 276.822 100.231 277.988 100.918 278.435" stroke="black" stroke-width="2.26535" stroke-linecap="round"/>
<path d="M97.1523 263.544C97.8649 264.755 99.2604 266.157 99.8691 266.706" stroke="black" stroke-width="2.26535" stroke-linecap="round"/>
<path d="M98.479 251.408C98.9934 252.716 100.152 254.318 100.668 254.956" stroke="black" stroke-width="2.26535" stroke-linecap="round"/>
<path d="M101.688 239.629C101.991 241.002 102.886 242.766 103.295 243.476" stroke="black" stroke-width="2.26535" stroke-linecap="round"/>
<path d="M106.701 228.498C106.786 229.901 107.393 231.783 107.686 232.549" stroke="black" stroke-width="2.26535" stroke-linecap="round"/>
<path d="M113.39 218.286C113.254 219.685 113.56 221.639 113.729 222.442" stroke="black" stroke-width="2.26535" stroke-linecap="round"/>
<path d="M121.599 209.248C121.247 210.609 121.242 212.587 121.284 213.405" stroke="black" stroke-width="2.26535" stroke-linecap="round"/>
<path d="M131.117 201.605C130.556 202.894 130.242 204.846 130.155 205.662" stroke="black" stroke-width="2.26535" stroke-linecap="round"/>
<path d="M141.716 195.546C140.96 196.731 140.345 198.61 140.132 199.402" stroke="black" stroke-width="2.26535" stroke-linecap="round"/>
<path d="M153.128 191.218C152.197 192.27 151.295 194.03 150.961 194.779" stroke="black" stroke-width="2.26535" stroke-linecap="round"/>
<path d="M165.08 188.73C163.995 189.623 162.829 191.221 162.382 191.908" stroke="black" stroke-width="2.26535" stroke-linecap="round"/>
<path d="M177.275 188.142C176.064 188.854 174.663 190.25 174.113 190.858" stroke="black" stroke-width="2.26535" stroke-linecap="round"/>
<path d="M189.412 189.468C188.104 189.983 186.502 191.142 185.864 191.657" stroke="black" stroke-width="2.26535" stroke-linecap="round"/>
<circle cx="174.918" cy="265.904" r="78.6977" transform="rotate(9.00002 174.918 265.904)" stroke="black" stroke-width="4.5307"/>
<path d="M619.761 32.9802C487.894 36.8143 392.714 72.7155 325.07 129.259C498.778 124.184 609.456 120.079 790.16 103.752C840.018 99.2468 858.504 90.6763 871.428 77.6087C803.099 50.5197 705.952 30.4741 619.761 32.9802Z" fill="#3A3A3A"/>
<path d="M325.07 129.259L324.634 128.737C324.412 128.923 324.332 129.229 324.435 129.5C324.538 129.771 324.801 129.946 325.09 129.938L325.07 129.259ZM619.761 32.9802L619.741 32.3008L619.761 32.9802ZM871.428 77.6087L871.911 78.0866C872.072 77.9243 872.14 77.6925 872.093 77.4692C872.046 77.2459 871.891 77.061 871.678 76.9769L871.428 77.6087ZM790.16 103.752L790.099 103.075L790.16 103.752ZM325.506 129.78C393.008 73.3557 488.03 37.4902 619.781 33.6595L619.741 32.3008C487.758 36.1384 392.42 72.0754 324.634 128.737L325.506 129.78ZM619.781 33.6595C705.871 31.1563 802.926 51.1823 871.177 78.2404L871.678 76.9769C803.271 49.8571 706.033 29.7918 619.741 32.3008L619.781 33.6595ZM870.945 77.1308C858.195 90.0225 839.913 98.574 790.099 103.075L790.221 104.429C840.123 99.9197 858.813 91.3301 871.911 78.0866L870.945 77.1308ZM790.099 103.075C609.415 119.401 498.752 123.505 325.05 128.579L325.09 129.938C498.803 124.863 609.497 120.758 790.221 104.429L790.099 103.075Z" fill="black"/>
<path d="M582.231 50.9678C571.345 75.9321 566.461 89.6263 558.445 113.879C497.651 117.025 463.569 118.643 402.815 119.2L397.469 103.193C449.516 71.3919 484.717 56.9773 582.231 50.9678Z" fill="#747476"/>
<mask id="path-113-outside-3_209_7631" maskUnits="userSpaceOnUse" x="303.172" y="28.9854" width="589" height="111" fill="black">
<rect fill="white" x="303.172" y="28.9854" width="589" height="111"/>
<path fill-rule="evenodd" clip-rule="evenodd" d="M888.506 78.6058C874.778 93.2291 854.149 101.752 801.2 107.013C619.58 125.059 504.545 128.924 338.745 134.493C328.427 134.84 317.912 135.193 307.172 135.557C473.449 9.92033 686.664 10.7812 888.506 78.6058ZM871.607 79.5118C858.682 92.5794 840.015 99.2471 790.158 103.752C609.454 120.08 498.775 124.185 325.068 129.259C487.267 8.47039 702.022 19.0723 871.607 79.5118Z"/>
</mask>
<path fill-rule="evenodd" clip-rule="evenodd" d="M888.506 78.6058C874.778 93.2291 854.149 101.752 801.2 107.013C619.58 125.059 504.545 128.924 338.745 134.493C328.427 134.84 317.912 135.193 307.172 135.557C473.449 9.92033 686.664 10.7812 888.506 78.6058ZM871.607 79.5118C858.682 92.5794 840.015 99.2471 790.158 103.752C609.454 120.08 498.775 124.185 325.068 129.259C487.267 8.47039 702.022 19.0723 871.607 79.5118Z" fill="#3A3A3A"/>
<path d="M801.2 107.013L801.558 110.62L801.2 107.013ZM888.506 78.6058L891.149 81.0866C891.994 80.1868 892.323 78.9188 892.022 77.7218C891.721 76.5248 890.831 75.5632 889.661 75.1701L888.506 78.6058ZM338.745 134.493L338.867 138.116L338.745 134.493ZM307.172 135.557L304.987 132.665C303.726 133.618 303.228 135.277 303.755 136.767C304.283 138.257 305.715 139.233 307.295 139.179L307.172 135.557ZM790.158 103.752L789.832 100.142L790.158 103.752ZM871.607 79.5118L874.184 82.0606C875.055 81.1794 875.416 79.914 875.141 78.7057C874.865 77.4974 873.991 76.5137 872.823 76.0976L871.607 79.5118ZM325.068 129.259L322.903 126.352C321.634 127.297 321.125 128.955 321.645 130.449C322.164 131.944 323.593 132.928 325.174 132.882L325.068 129.259ZM801.558 110.62C854.61 105.349 876.446 96.7483 891.149 81.0866L885.864 76.125C873.11 89.7099 853.688 98.1557 800.842 103.407L801.558 110.62ZM338.867 138.116C504.676 132.546 619.812 128.679 801.558 110.62L800.842 103.407C619.348 121.44 504.413 125.301 338.624 130.871L338.867 138.116ZM307.295 139.179C318.034 138.816 328.548 138.462 338.867 138.116L338.624 130.871C328.305 131.217 317.79 131.571 307.049 131.934L307.295 139.179ZM889.661 75.1701C687.194 7.13589 472.581 6.03335 304.987 132.665L309.357 138.449C474.317 13.8073 686.133 14.4265 887.352 82.0416L889.661 75.1701ZM790.484 107.362C840.334 102.858 860.248 96.1514 874.184 82.0606L869.03 76.9631C857.117 89.0075 839.697 95.6365 789.832 100.142L790.484 107.362ZM325.174 132.882C498.909 127.807 609.672 123.699 790.484 107.362L789.832 100.142C609.235 116.46 498.641 120.562 324.962 125.636L325.174 132.882ZM872.823 76.0976C702.646 15.4468 486.463 4.55019 322.903 126.352L327.233 132.166C488.071 12.3906 701.398 22.6977 870.39 82.926L872.823 76.0976Z" fill="black" mask="url(#path-113-outside-3_209_7631)"/>
<ellipse opacity="0.2" cx="489.794" cy="90.8705" rx="40.7962" ry="3.82053" transform="rotate(-34.7645 489.794 90.8705)" fill="black"/>
<path d="M305.346 133.994C306.31 133.12 307.899 134.109 307.363 135.364C306.985 136.248 305.774 137.068 305.136 137.811C304.064 139.059 303.388 140.398 302.724 141.886C302.091 143.304 299.984 142.488 300.472 141.014C301.363 138.32 303.266 135.88 305.346 133.994ZM300.395 141.359C300.514 139.947 302.632 139.885 302.799 141.304C303.008 143.074 302.518 145.173 302.383 146.955C302.082 150.938 301.801 154.923 301.545 158.909C300.655 172.794 300.073 186.705 300.125 200.62C300.231 228.863 303.669 256.687 307.904 284.566C308.01 285.262 306.995 285.536 306.744 284.875C306.072 283.103 306.047 280.773 305.742 278.898C304.916 273.826 304.129 268.748 303.395 263.662C301.22 248.594 299.56 233.447 298.77 218.239C297.441 192.676 298.256 166.858 300.395 141.359Z" fill="black"/>
<path d="M262.495 184.94C257.391 181.533 254.641 179.084 251.652 174.965C250.873 173.891 251.542 172.401 252.859 172.241C261.459 171.195 271.28 170.881 287.776 170.385C286.774 171.381 285.631 172.385 284.378 173.378C278.378 178.135 269.878 182.654 262.495 184.94Z" fill="#3A3A3A"/>
<path d="M251.652 174.965L250.735 175.63L251.652 174.965ZM262.495 184.94L261.866 185.882C262.149 186.072 262.504 186.123 262.83 186.022L262.495 184.94ZM292.238 171.256C292.862 171.219 293.338 170.683 293.301 170.058C293.264 169.434 292.728 168.957 292.104 168.994L292.238 171.256ZM252.859 172.241L252.723 171.116V171.116L252.859 172.241ZM265.486 175.797L264.559 175.147V175.147L265.486 175.797ZM284.378 173.378L285.082 174.265L284.378 173.378ZM268.715 174.109L268.767 175.24L268.715 174.109ZM250.735 175.63C253.824 179.887 256.685 182.423 261.866 185.882L263.124 183.998C258.097 180.642 255.457 178.281 252.569 174.3L250.735 175.63ZM292.104 168.994L287.709 169.254L287.843 171.516L292.238 171.256L292.104 168.994ZM287.742 169.253C271.265 169.748 261.385 170.063 252.723 171.116L252.996 173.365C261.533 172.327 271.295 172.014 287.81 171.517L287.742 169.253ZM263.621 185.061C264.043 181.102 264.651 178.961 266.414 176.447L264.559 175.147C262.491 178.096 261.812 180.659 261.368 184.82L263.621 185.061ZM262.83 186.022C270.349 183.694 278.974 179.108 285.082 174.265L283.674 172.49C277.783 177.162 269.407 181.614 262.16 183.858L262.83 186.022ZM285.082 174.265C286.362 173.251 287.538 172.219 288.575 171.188L286.977 169.582C286.011 170.543 284.9 171.519 283.674 172.49L285.082 174.265ZM268.767 175.24L284.431 174.509L284.325 172.246L268.662 172.978L268.767 175.24ZM266.414 176.447C266.918 175.728 267.786 175.286 268.767 175.24L268.662 172.978C267.088 173.051 265.524 173.771 264.559 175.147L266.414 176.447ZM252.569 174.3C252.31 173.944 252.512 173.424 252.996 173.365L252.723 171.116C250.572 171.378 249.435 173.838 250.735 175.63L252.569 174.3Z" fill="black"/>
<ellipse cx="267.473" cy="178.766" rx="1.24663" ry="2.36529" transform="rotate(24.6885 267.473 178.766)" fill="#747476"/>
<path d="M330.594 259.743C342.606 251.949 695.225 218.467 722.047 241.347C570.45 253.279 484.551 256.599 330.594 259.743Z" fill="#EDBF54"/>
<path d="M311.575 261.156C310.84 261.171 311.039 260.336 312.101 260.304C313.742 260.255 315.382 260.205 317.022 260.155C321.514 260.019 326.006 259.881 330.497 259.743C343.763 259.336 357.028 258.922 370.294 258.503C410.241 257.241 450.188 255.939 490.127 254.445C573.082 251.341 655.938 247.27 738.651 240.092C738.953 240.066 739.04 240.51 738.75 240.598C738.146 240.781 737.37 240.739 736.741 240.801C735.05 240.968 733.358 241.134 731.666 241.298C726.385 241.812 721.103 242.316 715.819 242.809C700.089 244.276 684.35 245.643 668.602 246.9C621.432 250.667 574.183 253.417 526.9 255.275C455.161 258.094 383.352 259.683 311.575 261.156Z" fill="black"/>
<path d="M285.436 178.279C285.032 178.304 284.854 177.75 285.198 177.531C285.553 177.306 286.179 177.414 286.568 177.386C288.729 177.233 290.89 177.079 293.051 176.926C298.843 176.514 304.635 176.103 310.427 175.693C327.87 174.458 345.314 173.235 362.761 172.048C415.314 168.475 467.895 165.317 520.501 162.67C612.621 158.036 704.836 154.988 797.052 153.18C797.44 153.172 797.588 153.71 797.25 153.905C796.897 154.108 796.294 153.976 795.916 153.986C793.621 154.048 791.325 154.11 789.029 154.172C783.202 154.332 777.375 154.495 771.549 154.661C753.667 155.171 735.786 155.713 717.907 156.288C664.633 158.003 611.369 160.015 558.126 162.532C467.176 166.83 376.315 172.698 285.436 178.279Z" fill="black"/>
<path d="M270.553 287.325C268.526 287.397 267.752 284.53 269.77 283.814C270.458 283.57 272.183 283.68 273.218 283.662C275.757 283.619 278.295 283.576 280.834 283.534C289.288 283.392 297.743 283.248 306.197 283.106C333.025 282.655 359.853 282.2 386.681 281.748C440.539 280.841 494.398 279.933 548.257 279.023C565.805 278.726 583.352 278.429 600.899 278.135C606.631 278.038 612.363 277.943 618.094 277.845C620.864 277.797 623.873 277.404 626.634 277.704C627.66 277.815 627.816 279.317 626.761 279.528C625.453 279.789 623.918 279.604 622.593 279.633C619.554 279.7 616.515 279.767 613.476 279.833C603.504 280.05 593.532 280.27 583.559 280.487C553.626 281.138 523.693 281.796 493.76 282.45C444.1 283.537 394.439 284.621 344.778 285.707C320.198 286.245 294.75 286.474 270.553 287.325ZM676.212 278.051C675.761 278.051 675.677 277.385 676.121 277.285C677.38 277.001 678.885 277.161 680.18 277.043C683.395 276.748 686.585 276.194 689.711 275.389C699.121 272.966 707.898 268.252 715.124 261.756C718.618 258.615 721.6 255.001 724.67 251.458C728.583 246.944 732.495 242.43 736.398 237.907C749.041 223.255 761.564 208.497 773.63 193.364C785.65 178.289 797.211 162.854 808.379 147.137C814.315 138.783 820.025 130.277 825.89 121.875C826.973 120.323 829.488 121.52 828.901 123.343C828.387 124.94 826.27 127.251 825.259 128.693C822.442 132.713 819.606 136.72 816.749 140.711C806.944 154.406 796.864 167.904 786.442 181.136C770.825 200.965 754.359 220.088 737.648 238.998C733.691 243.475 729.725 247.944 725.76 252.414C722.584 255.992 719.508 259.63 715.9 262.782C705.053 272.259 690.683 278.037 676.212 278.051ZM828.519 121.661C829.688 122.985 828.298 125.107 826.617 124.377C825.581 123.927 819.77 116.933 818.591 115.802C815.179 112.526 812.113 105.658 810.255 101.258C809.547 99.5826 811.505 97.907 813.004 99.0596C813.666 99.5687 813.965 100.666 814.34 101.402C815.091 102.874 818.521 110.895 819.506 112.221C822.124 115.747 825.632 118.39 828.519 121.661Z" fill="black"/>
<path d="M290.68 126.268C291.748 129.035 299.026 129.079 314.375 128.624" stroke="black" stroke-width="2.26535"/>
<path d="M731.089 283.913C731.335 283.951 731.371 284.318 731.118 284.379C729.857 284.681 728.248 284.439 726.963 284.462C723.989 284.515 721.015 284.573 718.04 284.63C709.139 284.801 700.238 284.972 691.336 285.142C664.595 285.652 637.855 286.186 611.114 286.692C538.414 288.068 465.713 289.115 393.004 289.902C369.521 290.156 346.039 290.406 322.557 290.66C314.859 290.743 307.16 290.827 299.462 290.913C296.955 290.941 294.448 290.97 291.942 290.999C290.819 291.012 289.582 291.181 288.465 291.037C288.018 290.979 287.953 290.309 288.413 290.211C289.585 289.962 291 290.157 292.189 290.136C295.063 290.086 297.937 290.034 300.81 289.982C309.431 289.824 318.052 289.667 326.672 289.509C352.381 289.039 378.09 288.552 403.799 288.085C477.863 286.737 551.926 285.699 625.998 284.962C649.668 284.727 673.337 284.495 697.007 284.26C704.705 284.184 712.403 284.107 720.102 284.027C722.651 284.001 725.2 283.974 727.748 283.946C728.814 283.935 730.031 283.749 731.089 283.913Z" fill="black"/>
<path d="M131.119 153.37C129.894 153.663 129.147 151.973 130.243 151.306C131.589 150.488 133.898 150.345 135.432 149.999C139.602 149.06 143.804 148.261 148.022 147.567C161.689 145.318 175.508 144.051 189.322 143.132C230.669 140.382 272.226 140.566 313.641 140.948C364.59 141.419 415.548 142.527 466.476 144.03C466.918 144.044 466.935 144.716 466.494 144.75C465.365 144.836 464.173 144.7 463.04 144.675C459.85 144.605 456.659 144.536 453.468 144.468C444.224 144.269 434.981 144.078 425.737 143.895C397.758 143.343 369.777 142.867 341.794 142.583C302.856 142.187 263.884 142.021 224.961 143.334C193.527 144.394 161.803 146.031 131.119 153.37Z" fill="black"/>
<path d="M90.869 304.867C77.3977 304.051 48.0629 301.758 38.494 299.111C33.0572 294.942 18.6043 288.551 18.3777 284.246C18.1965 280.801 27.6657 277.191 32.4229 275.816C31.1543 268.746 28.3453 265.184 25.9893 262.9C23.6333 260.615 18.2418 257.386 15.8405 256.056C17.0487 253.835 19.4651 247.454 19.4651 239.695C19.4651 231.936 14.3454 220.298 15.0703 202.305C20.4921 195.009 40.261 180.781 77.0956 168.632C100.293 155.67 169.114 130.154 261.178 130.154C416.835 15.396 629.219 -22.5999 873.231 52.1116C924.433 67.7886 985.599 98.0738 1032.94 100.197C1022.8 115.795 1023.7 124.622 1031.35 140.442V146.696C1024.96 146.472 1022.1 148.101 1023.2 155.262C1028.87 192.316 1034.87 195.835 1045.04 205.387C1046.06 216.896 1044 225.167 1038.42 241.236V250.028C1035 259.409 1032.41 263.49 1027.37 270.06C1035.49 277.387 1024.58 282.447 938.428 295.576M271.553 307.541L753.892 304.912" stroke="black" stroke-width="4.5307" stroke-linecap="round" stroke-linejoin="round"/>
<path d="M33.8294 275.056C34.4511 278.207 33.5718 280.482 31.1562 283.03" stroke="black" stroke-width="1.35921" stroke-linecap="round"/>
<path d="M15.8355 202.794C15.6031 202.062 16.5977 201.528 17.0392 202.185C17.7085 203.182 17.9066 204.888 18.3093 206.035C19.8152 210.326 22.0242 213.995 24.5313 217.756C24.8367 218.214 24.1256 217.925 23.9492 217.7C23.7002 217.383 23.4529 217.065 23.208 216.744C22.4006 215.689 21.6193 214.613 20.8924 213.5C18.7519 210.224 17.0202 206.524 15.8355 202.794Z" fill="black"/>
<path d="M261 130.391C279.424 131.218 289.227 127.617 306.307 118.067C495.101 -5.98336 709.676 -1.12614 930.412 77.6534C942.66 82.0248 949.515 84.4532 958.774 83.2262" stroke="black" stroke-width="1.81228"/>
</g>
<defs>
<filter id="filter0_d_209_7631" x="0.170222" y="0.508789" width="1059.95" height="379.073" filterUnits="userSpaceOnUse" color-interpolation-filters="sRGB">
<feFlood flood-opacity="0" result="BackgroundImageFix"/>
<feColorMatrix in="SourceAlpha" type="matrix" values="0 0 0 0 0 0 0 0 0 0 0 0 0 0 0 0 0 0 127 0" result="hardAlpha"/>
<feOffset dy="1.79072"/>
<feGaussianBlur stdDeviation="0.895358"/>
<feComposite in2="hardAlpha" operator="out"/>
<feColorMatrix type="matrix" values="0 0 0 0 0 0 0 0 0 0 0 0 0 0 0 0 0 0 0.25 0"/>
<feBlend mode="normal" in2="BackgroundImageFix" result="effect1_dropShadow_209_7631"/>
<feBlend mode="normal" in="SourceGraphic" in2="effect1_dropShadow_209_7631" result="shape"/>
</filter>
</defs>
</svg>
