<svg width="30" height="30" viewBox="0 0 30 30" fill="none" xmlns="http://www.w3.org/2000/svg">
<path d="M15 26.25C13.4212 24.9033 11.9577 23.4269 10.625 21.8362C8.625 19.4475 6.25 15.89 6.25 12.5C6.24913 10.7687 6.76189 9.07605 7.72337 7.63628C8.68485 6.1965 10.0518 5.07432 11.6513 4.41174C13.2508 3.74916 15.0109 3.57598 16.7089 3.91411C18.4069 4.25223 19.9663 5.08647 21.19 6.31124C22.0047 7.12232 22.6504 8.08691 23.0899 9.14921C23.5293 10.2115 23.7537 11.3504 23.75 12.5C23.75 15.89 21.375 19.4475 19.375 21.8362C18.0423 23.4269 16.5788 24.9033 15 26.25ZM15 8.74999C14.0054 8.74999 13.0516 9.14508 12.3484 9.84834C11.6451 10.5516 11.25 11.5054 11.25 12.5C11.25 13.4946 11.6451 14.4484 12.3484 15.1516C13.0516 15.8549 14.0054 16.25 15 16.25C15.9946 16.25 16.9484 15.8549 17.6517 15.1516C18.3549 14.4484 18.75 13.4946 18.75 12.5C18.75 11.5054 18.3549 10.5516 17.6517 9.84834C16.9484 9.14508 15.9946 8.74999 15 8.74999Z" fill="white"/>
<path d="M7.125 26H22.875C23.625 26 24 26.3333 24 27C24 27.6667 23.625 28 22.875 28H7.125C6.375 28 6 27.6667 6 27C6 26.3333 6.375 26 7.125 26Z" fill="white"/>
</svg>
